<?xml version="1.0" encoding="UTF-8" standalone="no"?>
<!DOCTYPE svg PUBLIC "-//W3C//DTD SVG 1.1//EN"
 "http://www.w3.org/Graphics/SVG/1.1/DTD/svg11.dtd">
<!-- Generated by graphviz version 13.1.2 (20250808.2320)
 -->
<!-- Pages: 1 -->
<svg width="9817pt" height="1047pt"
 viewBox="0.00 0.00 9817.00 1047.00" xmlns="http://www.w3.org/2000/svg" xmlns:xlink="http://www.w3.org/1999/xlink">
<g id="graph0" class="graph" transform="scale(1 1) rotate(0) translate(4 1043.2)">
<polygon fill="white" stroke="none" points="-4,4 -4,-1043.2 9812.58,-1043.2 9812.58,4 -4,4"/>
<!-- A_C2 -->
<g id="node1" class="node">
<title>A_C2</title>
<path fill="lightblue" stroke="black" d="M2866.83,-1039.2C2866.83,-1039.2 1925.13,-1039.2 1925.13,-1039.2 1919.13,-1039.2 1913.13,-1033.2 1913.13,-1027.2 1913.13,-1027.2 1913.13,-926.4 1913.13,-926.4 1913.13,-920.4 1919.13,-914.4 1925.13,-914.4 1925.13,-914.4 2866.83,-914.4 2866.83,-914.4 2872.83,-914.4 2878.83,-920.4 2878.83,-926.4 2878.83,-926.4 2878.83,-1027.2 2878.83,-1027.2 2878.83,-1033.2 2872.83,-1039.2 2866.83,-1039.2"/>
<text xml:space="preserve" text-anchor="start" x="2335.6" y="-1004.9" font-family="Arial" font-size="18.00"> &#160;&#160;&#160;&#160;&#160;&#160;&#160;&#160;&#160;&#160;&#160;&#160;&#160;&#160;&#160;&#160;&#160;&#160;&#160;</text>
<text xml:space="preserve" text-anchor="start" x="2440.6" y="-1004.9" font-family="Arial" font-weight="bold" font-size="22.00" fill="darkblue">A</text>
<text xml:space="preserve" text-anchor="start" x="1994.35" y="-986.7" font-family="Arial" font-size="18.00"> &#160;&#160;&#160;&#160;&#160;&#160;&#160;&#160;&#160;&#160;&#160;&#160;&#160;&#160;&#160;&#160;&#160;&#160;&#160;</text>
<text xml:space="preserve" text-anchor="start" x="2099.35" y="-986.7" font-family="Arial" font-style="italic" font-size="16.00">Regulatory pathway – from risks of deception to governance requirements that reduce those risks</text>
<text xml:space="preserve" text-anchor="start" x="2193.1" y="-948.8" font-family="Arial" font-size="18.00"> &#160;&#160;&#160;&#160;&#160;&#160;&#160;&#160;&#160;&#160;&#160;&#160;&#160;&#160;&#160;&#160;&#160;&#160;&#160;</text>
<text xml:space="preserve" text-anchor="start" x="2298.1" y="-948.8" font-family="Arial" font-weight="bold" font-size="20.00">Societal risks from AI deception</text>
<text xml:space="preserve" text-anchor="start" x="1934.73" y="-930.7" font-family="Arial" font-size="18.00"> &#160;&#160;&#160;&#160;&#160;&#160;&#160;&#160;&#160;&#160;&#160;&#160;&#160;&#160;&#160;&#160;&#160;&#160;&#160;</text>
<text xml:space="preserve" text-anchor="start" x="2039.73" y="-930.7" font-family="Arial" font-size="18.00">Fraud, election tampering, loss of control and other harms enabled by deceptive AI behaviour</text>
<text xml:space="preserve" text-anchor="start" x="2773.23" y="-930.7" font-family="Arial" font-size="18.00"> &#160;&#160;&#160;&#160;&#160;&#160;&#160;&#160;&#160;&#160;&#160;&#160;&#160;&#160;&#160;</text>
</g>
<!-- A_I10 -->
<g id="node4" class="node">
<title>A_I10</title>
<path fill="lightgreen" stroke="black" d="M955.95,-798C955.95,-798 12,-798 12,-798 6,-798 0,-792 0,-786 0,-786 0,-702 0,-702 0,-696 6,-690 12,-690 12,-690 955.95,-690 955.95,-690 961.95,-690 967.95,-696 967.95,-702 967.95,-702 967.95,-786 967.95,-786 967.95,-792 961.95,-798 955.95,-798"/>
<text xml:space="preserve" text-anchor="start" x="180.6" y="-753" font-family="Arial" font-size="18.00"> &#160;&#160;&#160;&#160;&#160;&#160;&#160;&#160;&#160;&#160;&#160;&#160;&#160;&#160;&#160;&#160;&#160;&#160;&#160;</text>
<text xml:space="preserve" text-anchor="start" x="285.6" y="-753" font-family="Arial" font-weight="bold" font-size="20.00">Gradual deployment with live monitoring &amp; shutdown</text>
<text xml:space="preserve" text-anchor="start" x="21.6" y="-734.9" font-family="Arial" font-size="18.00"> &#160;&#160;&#160;&#160;&#160;&#160;&#160;&#160;&#160;&#160;&#160;&#160;&#160;&#160;&#160;&#160;&#160;&#160;&#160;</text>
<text xml:space="preserve" text-anchor="start" x="126.6" y="-734.9" font-family="Arial" font-size="18.00">Staged releases and continuous monitoring to catch emerging deceptive behaviour in the wild</text>
<text xml:space="preserve" text-anchor="start" x="862.35" y="-734.9" font-family="Arial" font-size="18.00"> &#160;&#160;&#160;&#160;&#160;&#160;&#160;&#160;&#160;&#160;&#160;&#160;&#160;&#160;&#160;</text>
<text xml:space="preserve" text-anchor="start" x="446.1" y="-718.8" font-family="Arial" font-size="16.00" fill="darkred">Maturity: 3</text>
</g>
<!-- A_C2&#45;&gt;A_I10 -->
<g id="edge1" class="edge">
<title>A_C2&#45;&gt;A_I10</title>
<path fill="none" stroke="#666666" stroke-width="2" d="M1912.88,-917.48C1614.18,-881.43 1233.16,-835.43 939.7,-800.01"/>
<polygon fill="#666666" stroke="#666666" stroke-width="2" points="940.46,-796.58 930.11,-798.85 939.62,-803.53 940.46,-796.58"/>
<text xml:space="preserve" text-anchor="middle" x="1357.24" y="-861.52" font-family="Arial" font-size="16.00">requires (Conf: 1)</text>
</g>
<!-- A_I12 -->
<g id="node6" class="node">
<title>A_I12</title>
<path fill="lightgreen" stroke="black" d="M1854.2,-798C1854.2,-798 1037.75,-798 1037.75,-798 1031.75,-798 1025.75,-792 1025.75,-786 1025.75,-786 1025.75,-702 1025.75,-702 1025.75,-696 1031.75,-690 1037.75,-690 1037.75,-690 1854.2,-690 1854.2,-690 1860.2,-690 1866.2,-696 1866.2,-702 1866.2,-702 1866.2,-786 1866.2,-786 1866.2,-792 1860.2,-798 1854.2,-798"/>
<text xml:space="preserve" text-anchor="start" x="1210.48" y="-753" font-family="Arial" font-size="18.00"> &#160;&#160;&#160;&#160;&#160;&#160;&#160;&#160;&#160;&#160;&#160;&#160;&#160;&#160;&#160;&#160;&#160;&#160;&#160;</text>
<text xml:space="preserve" text-anchor="start" x="1315.48" y="-753" font-family="Arial" font-weight="bold" font-size="20.00">Isolation of high&#45;risk deceptive models</text>
<text xml:space="preserve" text-anchor="start" x="1047.35" y="-734.9" font-family="Arial" font-size="18.00"> &#160;&#160;&#160;&#160;&#160;&#160;&#160;&#160;&#160;&#160;&#160;&#160;&#160;&#160;&#160;&#160;&#160;&#160;&#160;</text>
<text xml:space="preserve" text-anchor="start" x="1152.35" y="-734.9" font-family="Arial" font-size="18.00">Robust sandboxing and separation from critical infrastructure to contain harm</text>
<text xml:space="preserve" text-anchor="start" x="1760.6" y="-734.9" font-family="Arial" font-size="18.00"> &#160;&#160;&#160;&#160;&#160;&#160;&#160;&#160;&#160;&#160;&#160;&#160;&#160;&#160;&#160;</text>
<text xml:space="preserve" text-anchor="start" x="1408.1" y="-718.8" font-family="Arial" font-size="16.00" fill="darkred">Maturity: 3</text>
</g>
<!-- A_C2&#45;&gt;A_I12 -->
<g id="edge4" class="edge">
<title>A_C2&#45;&gt;A_I12</title>
<path fill="none" stroke="#666666" stroke-width="2" d="M2141.39,-913.95C1997.48,-878.99 1818.88,-835.6 1678.71,-801.54"/>
<polygon fill="#666666" stroke="#666666" stroke-width="2" points="1679.61,-798.16 1669.07,-799.2 1677.96,-804.96 1679.61,-798.16"/>
<text xml:space="preserve" text-anchor="middle" x="1792.95" y="-859.81" font-family="Arial" font-size="16.00">protected_against_by (Conf: 1)</text>
</g>
<!-- B_C6 -->
<g id="node7" class="node">
<title>B_C6</title>
<path fill="lightblue" stroke="black" d="M2855.95,-806.4C2855.95,-806.4 1936,-806.4 1936,-806.4 1930,-806.4 1924,-800.4 1924,-794.4 1924,-794.4 1924,-693.6 1924,-693.6 1924,-687.6 1930,-681.6 1936,-681.6 1936,-681.6 2855.95,-681.6 2855.95,-681.6 2861.95,-681.6 2867.95,-687.6 2867.95,-693.6 2867.95,-693.6 2867.95,-794.4 2867.95,-794.4 2867.95,-800.4 2861.95,-806.4 2855.95,-806.4"/>
<text xml:space="preserve" text-anchor="start" x="2335.6" y="-772.1" font-family="Arial" font-size="18.00"> &#160;&#160;&#160;&#160;&#160;&#160;&#160;&#160;&#160;&#160;&#160;&#160;&#160;&#160;&#160;&#160;&#160;&#160;&#160;</text>
<text xml:space="preserve" text-anchor="start" x="2440.6" y="-772.1" font-family="Arial" font-weight="bold" font-size="22.00" fill="darkblue">B</text>
<text xml:space="preserve" text-anchor="start" x="2021.35" y="-753.9" font-family="Arial" font-size="18.00"> &#160;&#160;&#160;&#160;&#160;&#160;&#160;&#160;&#160;&#160;&#160;&#160;&#160;&#160;&#160;&#160;&#160;&#160;&#160;</text>
<text xml:space="preserve" text-anchor="start" x="2126.35" y="-753.9" font-family="Arial" font-style="italic" font-size="16.00">Identification pathway – distinguishing AI outputs from human ones to curb misinformation</text>
<text xml:space="preserve" text-anchor="start" x="2112.48" y="-716" font-family="Arial" font-size="18.00"> &#160;&#160;&#160;&#160;&#160;&#160;&#160;&#160;&#160;&#160;&#160;&#160;&#160;&#160;&#160;&#160;&#160;&#160;&#160;</text>
<text xml:space="preserve" text-anchor="start" x="2217.48" y="-716" font-family="Arial" font-weight="bold" font-size="20.00">AI outputs indistinguishable from human content</text>
<text xml:space="preserve" text-anchor="start" x="1945.6" y="-697.9" font-family="Arial" font-size="18.00"> &#160;&#160;&#160;&#160;&#160;&#160;&#160;&#160;&#160;&#160;&#160;&#160;&#160;&#160;&#160;&#160;&#160;&#160;&#160;</text>
<text xml:space="preserve" text-anchor="start" x="2050.6" y="-697.9" font-family="Arial" font-size="18.00">Modern generative models make it hard for users to know whether content is AI&#45;generated</text>
<text xml:space="preserve" text-anchor="start" x="2762.35" y="-697.9" font-family="Arial" font-size="18.00"> &#160;&#160;&#160;&#160;&#160;&#160;&#160;&#160;&#160;&#160;&#160;&#160;&#160;&#160;&#160;</text>
</g>
<!-- A_C2&#45;&gt;B_C6 -->
<!-- A_C9 -->
<g id="node2" class="node">
<title>A_C9</title>
<path fill="lightblue" stroke="black" d="M8886.7,-1030.8C8886.7,-1030.8 7971.25,-1030.8 7971.25,-1030.8 7965.25,-1030.8 7959.25,-1024.8 7959.25,-1018.8 7959.25,-1018.8 7959.25,-934.8 7959.25,-934.8 7959.25,-928.8 7965.25,-922.8 7971.25,-922.8 7971.25,-922.8 8886.7,-922.8 8886.7,-922.8 8892.7,-922.8 8898.7,-928.8 8898.7,-934.8 8898.7,-934.8 8898.7,-1018.8 8898.7,-1018.8 8898.7,-1024.8 8892.7,-1030.8 8886.7,-1030.8"/>
<text xml:space="preserve" text-anchor="start" x="8179.98" y="-977.8" font-family="Arial" font-size="18.00"> &#160;&#160;&#160;&#160;&#160;&#160;&#160;&#160;&#160;&#160;&#160;&#160;&#160;&#160;&#160;&#160;&#160;&#160;&#160;</text>
<text xml:space="preserve" text-anchor="start" x="8284.98" y="-977.8" font-family="Arial" font-weight="bold" font-size="20.00">Need to regulate deceptive AI as high&#45;risk</text>
<text xml:space="preserve" text-anchor="start" x="7980.85" y="-959.7" font-family="Arial" font-size="18.00"> &#160;&#160;&#160;&#160;&#160;&#160;&#160;&#160;&#160;&#160;&#160;&#160;&#160;&#160;&#160;&#160;&#160;&#160;&#160;</text>
<text xml:space="preserve" text-anchor="start" x="8085.85" y="-959.7" font-family="Arial" font-size="18.00">Deceptive capability warrants special governance under risk&#45;based regulatory frameworks</text>
<text xml:space="preserve" text-anchor="start" x="8793.1" y="-959.7" font-family="Arial" font-size="18.00"> &#160;&#160;&#160;&#160;&#160;&#160;&#160;&#160;&#160;&#160;&#160;&#160;&#160;&#160;&#160;</text>
</g>
<!-- A_I1 -->
<g id="node3" class="node">
<title>A_I1</title>
<path fill="lightgreen" stroke="black" d="M8975.58,-798C8975.58,-798 7882.38,-798 7882.38,-798 7876.38,-798 7870.38,-792 7870.38,-786 7870.38,-786 7870.38,-702 7870.38,-702 7870.38,-696 7876.38,-690 7882.38,-690 7882.38,-690 8975.58,-690 8975.58,-690 8981.58,-690 8987.58,-696 8987.58,-702 8987.58,-702 8987.58,-786 8987.58,-786 8987.58,-792 8981.58,-798 8975.58,-798"/>
<text xml:space="preserve" text-anchor="start" x="8168.35" y="-753" font-family="Arial" font-size="18.00"> &#160;&#160;&#160;&#160;&#160;&#160;&#160;&#160;&#160;&#160;&#160;&#160;&#160;&#160;&#160;&#160;&#160;&#160;&#160;</text>
<text xml:space="preserve" text-anchor="start" x="8273.35" y="-753" font-family="Arial" font-weight="bold" font-size="20.00">Classify &amp; regulate deceptive AI as high&#45;risk</text>
<text xml:space="preserve" text-anchor="start" x="7891.98" y="-734.9" font-family="Arial" font-size="18.00"> &#160;&#160;&#160;&#160;&#160;&#160;&#160;&#160;&#160;&#160;&#160;&#160;&#160;&#160;&#160;&#160;&#160;&#160;&#160;</text>
<text xml:space="preserve" text-anchor="start" x="7996.98" y="-734.9" font-family="Arial" font-size="18.00">Mandate risk assessment, documentation, logging, transparency, human oversight and robustness requirements</text>
<text xml:space="preserve" text-anchor="start" x="8881.98" y="-734.9" font-family="Arial" font-size="18.00"> &#160;&#160;&#160;&#160;&#160;&#160;&#160;&#160;&#160;&#160;&#160;&#160;&#160;&#160;&#160;</text>
<text xml:space="preserve" text-anchor="start" x="8391.1" y="-718.8" font-family="Arial" font-size="16.00" fill="darkred">Maturity: 3</text>
</g>
<!-- A_C9&#45;&gt;A_I1 -->
<g id="edge2" class="edge">
<title>A_C9&#45;&gt;A_I1</title>
<path fill="none" stroke="#666666" stroke-width="2" d="M8428.98,-922.56C8428.98,-889.36 8428.98,-846.38 8428.98,-811.02"/>
<polygon fill="#666666" stroke="#666666" stroke-width="2" points="8432.48,-811.4 8428.98,-801.4 8425.48,-811.4 8432.48,-811.4"/>
<text xml:space="preserve" text-anchor="middle" x="8353.98" y="-864.35" font-family="Arial" font-size="16.00">realized_by (Conf: 1)</text>
</g>
<!-- A_I11 -->
<g id="node5" class="node">
<title>A_I11</title>
<path fill="lightgreen" stroke="black" d="M8901.7,-565.2C8901.7,-565.2 7956.25,-565.2 7956.25,-565.2 7950.25,-565.2 7944.25,-559.2 7944.25,-553.2 7944.25,-553.2 7944.25,-469.2 7944.25,-469.2 7944.25,-463.2 7950.25,-457.2 7956.25,-457.2 7956.25,-457.2 8901.7,-457.2 8901.7,-457.2 8907.7,-457.2 8913.7,-463.2 8913.7,-469.2 8913.7,-469.2 8913.7,-553.2 8913.7,-553.2 8913.7,-559.2 8907.7,-565.2 8901.7,-565.2"/>
<text xml:space="preserve" text-anchor="start" x="8137.98" y="-520.2" font-family="Arial" font-size="18.00"> &#160;&#160;&#160;&#160;&#160;&#160;&#160;&#160;&#160;&#160;&#160;&#160;&#160;&#160;&#160;&#160;&#160;&#160;&#160;</text>
<text xml:space="preserve" text-anchor="start" x="8242.98" y="-520.2" font-family="Arial" font-weight="bold" font-size="20.00">Mandatory logging &amp; flagging of deceptive outputs</text>
<text xml:space="preserve" text-anchor="start" x="7965.85" y="-502.1" font-family="Arial" font-size="18.00"> &#160;&#160;&#160;&#160;&#160;&#160;&#160;&#160;&#160;&#160;&#160;&#160;&#160;&#160;&#160;&#160;&#160;&#160;&#160;</text>
<text xml:space="preserve" text-anchor="start" x="8070.85" y="-502.1" font-family="Arial" font-size="18.00">Automatic recording and alerting of potentially deceptive model behaviours during deployment</text>
<text xml:space="preserve" text-anchor="start" x="8808.1" y="-502.1" font-family="Arial" font-size="18.00"> &#160;&#160;&#160;&#160;&#160;&#160;&#160;&#160;&#160;&#160;&#160;&#160;&#160;&#160;&#160;</text>
<text xml:space="preserve" text-anchor="start" x="8391.1" y="-486" font-family="Arial" font-size="16.00" fill="darkred">Maturity: 3</text>
</g>
<!-- A_I1&#45;&gt;A_I11 -->
<g id="edge3" class="edge">
<title>A_I1&#45;&gt;A_I11</title>
<path fill="none" stroke="#666666" stroke-width="2" d="M8428.98,-689.76C8428.98,-656.56 8428.98,-613.58 8428.98,-578.22"/>
<polygon fill="#666666" stroke="#666666" stroke-width="2" points="8432.48,-578.6 8428.98,-568.6 8425.48,-578.6 8432.48,-578.6"/>
<text xml:space="preserve" text-anchor="middle" x="8335.98" y="-631.55" font-family="Arial" font-size="16.00">implemented_by (Conf: 1)</text>
</g>
<!-- B_I2 -->
<g id="node9" class="node">
<title>B_I2</title>
<path fill="lightgreen" stroke="black" d="M3693.95,-565.2C3693.95,-565.2 2912,-565.2 2912,-565.2 2906,-565.2 2900,-559.2 2900,-553.2 2900,-553.2 2900,-469.2 2900,-469.2 2900,-463.2 2906,-457.2 2912,-457.2 2912,-457.2 3693.95,-457.2 3693.95,-457.2 3699.95,-457.2 3705.95,-463.2 3705.95,-469.2 3705.95,-469.2 3705.95,-553.2 3705.95,-553.2 3705.95,-559.2 3699.95,-565.2 3693.95,-565.2"/>
<text xml:space="preserve" text-anchor="start" x="3125.6" y="-520.2" font-family="Arial" font-size="18.00"> &#160;&#160;&#160;&#160;&#160;&#160;&#160;&#160;&#160;&#160;&#160;&#160;&#160;&#160;&#160;&#160;&#160;&#160;&#160;</text>
<text xml:space="preserve" text-anchor="start" x="3230.6" y="-520.2" font-family="Arial" font-weight="bold" font-size="20.00">Bot&#45;or&#45;not disclosure laws</text>
<text xml:space="preserve" text-anchor="start" x="2921.6" y="-502.1" font-family="Arial" font-size="18.00"> &#160;&#160;&#160;&#160;&#160;&#160;&#160;&#160;&#160;&#160;&#160;&#160;&#160;&#160;&#160;&#160;&#160;&#160;&#160;</text>
<text xml:space="preserve" text-anchor="start" x="3026.6" y="-502.1" font-family="Arial" font-size="18.00">Require chatbots to self&#45;identify and AI media to display visible indicators</text>
<text xml:space="preserve" text-anchor="start" x="3600.35" y="-502.1" font-family="Arial" font-size="18.00"> &#160;&#160;&#160;&#160;&#160;&#160;&#160;&#160;&#160;&#160;&#160;&#160;&#160;&#160;&#160;</text>
<text xml:space="preserve" text-anchor="start" x="3265.1" y="-486" font-family="Arial" font-size="16.00" fill="darkred">Maturity: 3</text>
</g>
<!-- B_C6&#45;&gt;B_I2 -->
<g id="edge5" class="edge">
<title>B_C6&#45;&gt;B_I2</title>
<path fill="none" stroke="#666666" stroke-width="2" d="M2639.03,-681.15C2776.3,-646.22 2946.61,-602.88 3080.37,-568.85"/>
<polygon fill="#666666" stroke="#666666" stroke-width="2" points="3081.03,-572.29 3089.85,-566.43 3079.3,-565.51 3081.03,-572.29"/>
<text xml:space="preserve" text-anchor="middle" x="2786.44" y="-626.96" font-family="Arial" font-size="16.00">mitigated_by (Conf: 1)</text>
</g>
<!-- B_I3 -->
<g id="node10" class="node">
<title>B_I3</title>
<path fill="lightgreen" stroke="black" d="M6198.58,-565.2C6198.58,-565.2 5465.38,-565.2 5465.38,-565.2 5459.38,-565.2 5453.38,-559.2 5453.38,-553.2 5453.38,-553.2 5453.38,-469.2 5453.38,-469.2 5453.38,-463.2 5459.38,-457.2 5465.38,-457.2 5465.38,-457.2 6198.58,-457.2 6198.58,-457.2 6204.58,-457.2 6210.58,-463.2 6210.58,-469.2 6210.58,-469.2 6210.58,-553.2 6210.58,-553.2 6210.58,-559.2 6204.58,-565.2 6198.58,-565.2"/>
<text xml:space="preserve" text-anchor="start" x="5601.73" y="-520.2" font-family="Arial" font-size="18.00"> &#160;&#160;&#160;&#160;&#160;&#160;&#160;&#160;&#160;&#160;&#160;&#160;&#160;&#160;&#160;&#160;&#160;&#160;&#160;</text>
<text xml:space="preserve" text-anchor="start" x="5706.73" y="-520.2" font-family="Arial" font-weight="bold" font-size="20.00">Statistical watermarking of AI outputs</text>
<text xml:space="preserve" text-anchor="start" x="5474.98" y="-502.1" font-family="Arial" font-size="18.00"> &#160;&#160;&#160;&#160;&#160;&#160;&#160;&#160;&#160;&#160;&#160;&#160;&#160;&#160;&#160;&#160;&#160;&#160;&#160;</text>
<text xml:space="preserve" text-anchor="start" x="5579.98" y="-502.1" font-family="Arial" font-size="18.00">Embed difficult&#45;to&#45;remove signatures that detectors can later verify</text>
<text xml:space="preserve" text-anchor="start" x="6104.98" y="-502.1" font-family="Arial" font-size="18.00"> &#160;&#160;&#160;&#160;&#160;&#160;&#160;&#160;&#160;&#160;&#160;&#160;&#160;&#160;&#160;</text>
<text xml:space="preserve" text-anchor="start" x="5794.1" y="-486" font-family="Arial" font-size="16.00" fill="darkred">Maturity: 4</text>
</g>
<!-- B_C6&#45;&gt;B_I3 -->
<g id="edge6" class="edge">
<title>B_C6&#45;&gt;B_I3</title>
<path fill="none" stroke="#666666" stroke-width="2" d="M2868.28,-730.31C3465.12,-711.13 4523.36,-666.61 5424.98,-573.6 5443.33,-571.71 5462.12,-569.57 5481.07,-567.26"/>
<polygon fill="#666666" stroke="#666666" stroke-width="2" points="5481.38,-570.75 5490.88,-566.05 5480.52,-563.8 5481.38,-570.75"/>
<text xml:space="preserve" text-anchor="middle" x="4103.04" y="-674.56" font-family="Arial" font-size="16.00">mitigated_by (Conf: 3)</text>
</g>
<!-- B_I4 -->
<g id="node11" class="node">
<title>B_I4</title>
<path fill="lightgreen" stroke="black" d="M5383.7,-565.2C5383.7,-565.2 4648.25,-565.2 4648.25,-565.2 4642.25,-565.2 4636.25,-559.2 4636.25,-553.2 4636.25,-553.2 4636.25,-469.2 4636.25,-469.2 4636.25,-463.2 4642.25,-457.2 4648.25,-457.2 4648.25,-457.2 5383.7,-457.2 5383.7,-457.2 5389.7,-457.2 5395.7,-463.2 5395.7,-469.2 5395.7,-469.2 5395.7,-553.2 5395.7,-553.2 5395.7,-559.2 5389.7,-565.2 5383.7,-565.2"/>
<text xml:space="preserve" text-anchor="start" x="4824.73" y="-520.2" font-family="Arial" font-size="18.00"> &#160;&#160;&#160;&#160;&#160;&#160;&#160;&#160;&#160;&#160;&#160;&#160;&#160;&#160;&#160;&#160;&#160;&#160;&#160;</text>
<text xml:space="preserve" text-anchor="start" x="4929.73" y="-520.2" font-family="Arial" font-weight="bold" font-size="20.00">Signed provenance registries</text>
<text xml:space="preserve" text-anchor="start" x="4657.85" y="-502.1" font-family="Arial" font-size="18.00"> &#160;&#160;&#160;&#160;&#160;&#160;&#160;&#160;&#160;&#160;&#160;&#160;&#160;&#160;&#160;&#160;&#160;&#160;&#160;</text>
<text xml:space="preserve" text-anchor="start" x="4762.85" y="-502.1" font-family="Arial" font-size="18.00">Maintain databases of model outputs to enable authenticity queries</text>
<text xml:space="preserve" text-anchor="start" x="5290.1" y="-502.1" font-family="Arial" font-size="18.00"> &#160;&#160;&#160;&#160;&#160;&#160;&#160;&#160;&#160;&#160;&#160;&#160;&#160;&#160;&#160;</text>
<text xml:space="preserve" text-anchor="start" x="4978.1" y="-486" font-family="Arial" font-size="16.00" fill="darkred">Maturity: 3</text>
</g>
<!-- B_C6&#45;&gt;B_I4 -->
<g id="edge7" class="edge">
<title>B_C6&#45;&gt;B_I4</title>
<path fill="none" stroke="#666666" stroke-width="2" d="M2868.39,-716.76C3316.69,-689.5 4008.91,-641.31 4606.98,-573.6 4624.06,-571.67 4641.52,-569.56 4659.14,-567.32"/>
<polygon fill="#666666" stroke="#666666" stroke-width="2" points="4659.52,-570.8 4669,-566.06 4658.63,-563.86 4659.52,-570.8"/>
<text xml:space="preserve" text-anchor="middle" x="3691.98" y="-656.71" font-family="Arial" font-size="16.00">mitigated_by (Conf: 1)</text>
</g>
<!-- C4 -->
<g id="node12" class="node">
<title>C4</title>
<path fill="lightblue" stroke="black" d="M2829.7,-573.6C2829.7,-573.6 1962.25,-573.6 1962.25,-573.6 1956.25,-573.6 1950.25,-567.6 1950.25,-561.6 1950.25,-561.6 1950.25,-460.8 1950.25,-460.8 1950.25,-454.8 1956.25,-448.8 1962.25,-448.8 1962.25,-448.8 2829.7,-448.8 2829.7,-448.8 2835.7,-448.8 2841.7,-454.8 2841.7,-460.8 2841.7,-460.8 2841.7,-561.6 2841.7,-561.6 2841.7,-567.6 2835.7,-573.6 2829.7,-573.6"/>
<text xml:space="preserve" text-anchor="start" x="2335.6" y="-539.3" font-family="Arial" font-size="18.00"> &#160;&#160;&#160;&#160;&#160;&#160;&#160;&#160;&#160;&#160;&#160;&#160;&#160;&#160;&#160;&#160;&#160;&#160;&#160;</text>
<text xml:space="preserve" text-anchor="start" x="2440.6" y="-539.3" font-family="Arial" font-weight="bold" font-size="22.00" fill="darkblue">C</text>
<text xml:space="preserve" text-anchor="start" x="2064.48" y="-521.1" font-family="Arial" font-size="18.00"> &#160;&#160;&#160;&#160;&#160;&#160;&#160;&#160;&#160;&#160;&#160;&#160;&#160;&#160;&#160;&#160;&#160;&#160;&#160;</text>
<text xml:space="preserve" text-anchor="start" x="2169.48" y="-521.1" font-family="Arial" font-style="italic" font-size="16.00">Detection pathway – technical tools to uncover and limit deceptive behaviours</text>
<text xml:space="preserve" text-anchor="start" x="2158.23" y="-483.2" font-family="Arial" font-size="18.00"> &#160;&#160;&#160;&#160;&#160;&#160;&#160;&#160;&#160;&#160;&#160;&#160;&#160;&#160;&#160;&#160;&#160;&#160;&#160;</text>
<text xml:space="preserve" text-anchor="start" x="2263.23" y="-483.2" font-family="Arial" font-weight="bold" font-size="20.00">LLMs exhibit multiple deception modes</text>
<text xml:space="preserve" text-anchor="start" x="1971.85" y="-465.1" font-family="Arial" font-size="18.00"> &#160;&#160;&#160;&#160;&#160;&#160;&#160;&#160;&#160;&#160;&#160;&#160;&#160;&#160;&#160;&#160;&#160;&#160;&#160;</text>
<text xml:space="preserve" text-anchor="start" x="2076.85" y="-465.1" font-family="Arial" font-size="18.00">Strategic lying, sycophancy, imitation, unfaithful reasoning observed in large models</text>
<text xml:space="preserve" text-anchor="start" x="2736.1" y="-465.1" font-family="Arial" font-size="18.00"> &#160;&#160;&#160;&#160;&#160;&#160;&#160;&#160;&#160;&#160;&#160;&#160;&#160;&#160;&#160;</text>
</g>
<!-- B_C6&#45;&gt;C4 -->
<!-- B_C10 -->
<g id="node8" class="node">
<title>B_C10</title>
<path fill="lightblue" stroke="black" d="M5840.45,-798C5840.45,-798 5007.5,-798 5007.5,-798 5001.5,-798 4995.5,-792 4995.5,-786 4995.5,-786 4995.5,-702 4995.5,-702 4995.5,-696 5001.5,-690 5007.5,-690 5007.5,-690 5840.45,-690 5840.45,-690 5846.45,-690 5852.45,-696 5852.45,-702 5852.45,-702 5852.45,-786 5852.45,-786 5852.45,-792 5846.45,-798 5840.45,-798"/>
<text xml:space="preserve" text-anchor="start" x="5208.73" y="-745" font-family="Arial" font-size="18.00"> &#160;&#160;&#160;&#160;&#160;&#160;&#160;&#160;&#160;&#160;&#160;&#160;&#160;&#160;&#160;&#160;&#160;&#160;&#160;</text>
<text xml:space="preserve" text-anchor="start" x="5313.73" y="-745" font-family="Arial" font-weight="bold" font-size="20.00">Need for provenance identification</text>
<text xml:space="preserve" text-anchor="start" x="5017.1" y="-726.9" font-family="Arial" font-size="18.00"> &#160;&#160;&#160;&#160;&#160;&#160;&#160;&#160;&#160;&#160;&#160;&#160;&#160;&#160;&#160;&#160;&#160;&#160;&#160;</text>
<text xml:space="preserve" text-anchor="start" x="5122.1" y="-726.9" font-family="Arial" font-size="18.00">Knowing who or what produced content mitigates misinformation and deception</text>
<text xml:space="preserve" text-anchor="start" x="5746.85" y="-726.9" font-family="Arial" font-size="18.00"> &#160;&#160;&#160;&#160;&#160;&#160;&#160;&#160;&#160;&#160;&#160;&#160;&#160;&#160;&#160;</text>
</g>
<!-- B_C10&#45;&gt;B_I3 -->
<g id="edge8" class="edge">
<title>B_C10&#45;&gt;B_I3</title>
<path fill="none" stroke="#666666" stroke-width="2" d="M5518.35,-689.61C5580.65,-654.37 5662.35,-608.15 5726.75,-571.73"/>
<polygon fill="#666666" stroke="#666666" stroke-width="2" points="5728.13,-574.97 5735.11,-567 5724.68,-568.87 5728.13,-574.97"/>
<text xml:space="preserve" text-anchor="middle" x="5553.14" y="-631.06" font-family="Arial" font-size="16.00">realized_by (Conf: 3)</text>
</g>
<!-- B_C10&#45;&gt;B_I4 -->
<g id="edge9" class="edge">
<title>B_C10&#45;&gt;B_I4</title>
<path fill="none" stroke="#666666" stroke-width="2" d="M5329.6,-689.61C5267.3,-654.37 5185.6,-608.15 5121.2,-571.73"/>
<polygon fill="#666666" stroke="#666666" stroke-width="2" points="5123.27,-568.87 5112.84,-567 5119.82,-574.97 5123.27,-568.87"/>
<text xml:space="preserve" text-anchor="middle" x="5144.81" y="-631.06" font-family="Arial" font-size="16.00">realized_by (Conf: 1)</text>
</g>
<!-- C_I5 -->
<g id="node16" class="node">
<title>C_I5</title>
<path fill="lightgreen" stroke="black" d="M4577.7,-332.4C4577.7,-332.4 3764.25,-332.4 3764.25,-332.4 3758.25,-332.4 3752.25,-326.4 3752.25,-320.4 3752.25,-320.4 3752.25,-236.4 3752.25,-236.4 3752.25,-230.4 3758.25,-224.4 3764.25,-224.4 3764.25,-224.4 4577.7,-224.4 4577.7,-224.4 4583.7,-224.4 4589.7,-230.4 4589.7,-236.4 4589.7,-236.4 4589.7,-320.4 4589.7,-320.4 4589.7,-326.4 4583.7,-332.4 4577.7,-332.4"/>
<text xml:space="preserve" text-anchor="start" x="3940.73" y="-287.4" font-family="Arial" font-size="18.00"> &#160;&#160;&#160;&#160;&#160;&#160;&#160;&#160;&#160;&#160;&#160;&#160;&#160;&#160;&#160;&#160;&#160;&#160;&#160;</text>
<text xml:space="preserve" text-anchor="start" x="4045.73" y="-287.4" font-family="Arial" font-weight="bold" font-size="20.00">Behaviour&#45;based deception detectors</text>
<text xml:space="preserve" text-anchor="start" x="3773.85" y="-269.3" font-family="Arial" font-size="18.00"> &#160;&#160;&#160;&#160;&#160;&#160;&#160;&#160;&#160;&#160;&#160;&#160;&#160;&#160;&#160;&#160;&#160;&#160;&#160;</text>
<text xml:space="preserve" text-anchor="start" x="3878.85" y="-269.3" font-family="Arial" font-size="18.00">Use logical consistency and scenario variation tests to flag deceptive outputs</text>
<text xml:space="preserve" text-anchor="start" x="4484.1" y="-269.3" font-family="Arial" font-size="18.00"> &#160;&#160;&#160;&#160;&#160;&#160;&#160;&#160;&#160;&#160;&#160;&#160;&#160;&#160;&#160;</text>
<text xml:space="preserve" text-anchor="start" x="4133.1" y="-253.2" font-family="Arial" font-size="16.00" fill="darkred">Maturity: 4</text>
</g>
<!-- C4&#45;&gt;C_I5 -->
<g id="edge12" class="edge">
<title>C4&#45;&gt;C_I5</title>
<path fill="none" stroke="#666666" stroke-width="2" d="M2842.16,-452.18C3119.54,-416.12 3474.07,-370.02 3747.15,-334.51"/>
<polygon fill="#666666" stroke="#666666" stroke-width="2" points="3747.22,-338.03 3756.68,-333.27 3746.31,-331.09 3747.22,-338.03"/>
<text xml:space="preserve" text-anchor="middle" x="3216.51" y="-396.09" font-family="Arial" font-size="16.00">addressed_by (Conf: 1)</text>
</g>
<!-- C_I6 -->
<g id="node17" class="node">
<title>C_I6</title>
<path fill="lightgreen" stroke="black" d="M6609.33,-332.4C6609.33,-332.4 5940.62,-332.4 5940.62,-332.4 5934.62,-332.4 5928.62,-326.4 5928.62,-320.4 5928.62,-320.4 5928.62,-236.4 5928.62,-236.4 5928.62,-230.4 5934.62,-224.4 5940.62,-224.4 5940.62,-224.4 6609.33,-224.4 6609.33,-224.4 6615.33,-224.4 6621.33,-230.4 6621.33,-236.4 6621.33,-236.4 6621.33,-320.4 6621.33,-320.4 6621.33,-326.4 6615.33,-332.4 6609.33,-332.4"/>
<text xml:space="preserve" text-anchor="start" x="6075.1" y="-287.4" font-family="Arial" font-size="18.00"> &#160;&#160;&#160;&#160;&#160;&#160;&#160;&#160;&#160;&#160;&#160;&#160;&#160;&#160;&#160;&#160;&#160;&#160;&#160;</text>
<text xml:space="preserve" text-anchor="start" x="6180.1" y="-287.4" font-family="Arial" font-weight="bold" font-size="20.00">Embedding&#45;based lie detectors</text>
<text xml:space="preserve" text-anchor="start" x="5950.23" y="-269.3" font-family="Arial" font-size="18.00"> &#160;&#160;&#160;&#160;&#160;&#160;&#160;&#160;&#160;&#160;&#160;&#160;&#160;&#160;&#160;&#160;&#160;&#160;&#160;</text>
<text xml:space="preserve" text-anchor="start" x="6055.23" y="-269.3" font-family="Arial" font-size="18.00">Compare internal truth representations with generated text</text>
<text xml:space="preserve" text-anchor="start" x="6515.73" y="-269.3" font-family="Arial" font-size="18.00"> &#160;&#160;&#160;&#160;&#160;&#160;&#160;&#160;&#160;&#160;&#160;&#160;&#160;&#160;&#160;</text>
<text xml:space="preserve" text-anchor="start" x="6237.1" y="-253.2" font-family="Arial" font-size="16.00" fill="darkred">Maturity: 4</text>
</g>
<!-- C4&#45;&gt;C_I6 -->
<g id="edge13" class="edge">
<title>C4&#45;&gt;C_I6</title>
<path fill="none" stroke="#666666" stroke-width="2" d="M2842.12,-451.49C2851.82,-450.55 2861.45,-449.65 2870.98,-448.8 3453.29,-396.76 5164.88,-324.12 5915.37,-293.7"/>
<polygon fill="#666666" stroke="#666666" stroke-width="2" points="5915.39,-297.2 5925.24,-293.3 5915.11,-290.2 5915.39,-297.2"/>
<text xml:space="preserve" text-anchor="middle" x="4245.72" y="-366.69" font-family="Arial" font-size="16.00">addressed_by (Conf: 1)</text>
</g>
<!-- D_C3 -->
<g id="node19" class="node">
<title>D_C3</title>
<path fill="lightblue" stroke="black" d="M2813.58,-340.8C2813.58,-340.8 1978.38,-340.8 1978.38,-340.8 1972.38,-340.8 1966.38,-334.8 1966.38,-328.8 1966.38,-328.8 1966.38,-228 1966.38,-228 1966.38,-222 1972.38,-216 1978.38,-216 1978.38,-216 2813.58,-216 2813.58,-216 2819.58,-216 2825.58,-222 2825.58,-228 2825.58,-228 2825.58,-328.8 2825.58,-328.8 2825.58,-334.8 2819.58,-340.8 2813.58,-340.8"/>
<text xml:space="preserve" text-anchor="start" x="2335.6" y="-306.5" font-family="Arial" font-size="18.00"> &#160;&#160;&#160;&#160;&#160;&#160;&#160;&#160;&#160;&#160;&#160;&#160;&#160;&#160;&#160;&#160;&#160;&#160;&#160;</text>
<text xml:space="preserve" text-anchor="start" x="2440.6" y="-306.5" font-family="Arial" font-weight="bold" font-size="22.00" fill="darkblue">D</text>
<text xml:space="preserve" text-anchor="start" x="2025.1" y="-288.3" font-family="Arial" font-size="18.00"> &#160;&#160;&#160;&#160;&#160;&#160;&#160;&#160;&#160;&#160;&#160;&#160;&#160;&#160;&#160;&#160;&#160;&#160;&#160;</text>
<text xml:space="preserve" text-anchor="start" x="2130.1" y="-288.3" font-family="Arial" font-style="italic" font-size="16.00">Training &amp; control pathway – shaping incentives and representations to reduce deception</text>
<text xml:space="preserve" text-anchor="start" x="2171.73" y="-250.4" font-family="Arial" font-size="18.00"> &#160;&#160;&#160;&#160;&#160;&#160;&#160;&#160;&#160;&#160;&#160;&#160;&#160;&#160;&#160;&#160;&#160;&#160;&#160;</text>
<text xml:space="preserve" text-anchor="start" x="2276.73" y="-250.4" font-family="Arial" font-weight="bold" font-size="20.00">Adversarial RL selects for deception</text>
<text xml:space="preserve" text-anchor="start" x="1987.98" y="-232.3" font-family="Arial" font-size="18.00"> &#160;&#160;&#160;&#160;&#160;&#160;&#160;&#160;&#160;&#160;&#160;&#160;&#160;&#160;&#160;&#160;&#160;&#160;&#160;</text>
<text xml:space="preserve" text-anchor="start" x="2092.98" y="-232.3" font-family="Arial" font-size="18.00">Competitive multi&#45;agent games create strong incentives to learn lying strategies</text>
<text xml:space="preserve" text-anchor="start" x="2719.98" y="-232.3" font-family="Arial" font-size="18.00"> &#160;&#160;&#160;&#160;&#160;&#160;&#160;&#160;&#160;&#160;&#160;&#160;&#160;&#160;&#160;</text>
</g>
<!-- C4&#45;&gt;D_C3 -->
<!-- C5 -->
<g id="node13" class="node">
<title>C5</title>
<path fill="lightblue" stroke="black" d="M7113.83,-565.2C7113.83,-565.2 6280.12,-565.2 6280.12,-565.2 6274.12,-565.2 6268.12,-559.2 6268.12,-553.2 6268.12,-553.2 6268.12,-469.2 6268.12,-469.2 6268.12,-463.2 6274.12,-457.2 6280.12,-457.2 6280.12,-457.2 7113.83,-457.2 7113.83,-457.2 7119.83,-457.2 7125.83,-463.2 7125.83,-469.2 7125.83,-469.2 7125.83,-553.2 7125.83,-553.2 7125.83,-559.2 7119.83,-565.2 7113.83,-565.2"/>
<text xml:space="preserve" text-anchor="start" x="6478.35" y="-512.2" font-family="Arial" font-size="18.00"> &#160;&#160;&#160;&#160;&#160;&#160;&#160;&#160;&#160;&#160;&#160;&#160;&#160;&#160;&#160;&#160;&#160;&#160;&#160;</text>
<text xml:space="preserve" text-anchor="start" x="6583.35" y="-512.2" font-family="Arial" font-weight="bold" font-size="20.00">Deceptive AI can cheat safety tests</text>
<text xml:space="preserve" text-anchor="start" x="6289.73" y="-494.1" font-family="Arial" font-size="18.00"> &#160;&#160;&#160;&#160;&#160;&#160;&#160;&#160;&#160;&#160;&#160;&#160;&#160;&#160;&#160;&#160;&#160;&#160;&#160;</text>
<text xml:space="preserve" text-anchor="start" x="6394.73" y="-494.1" font-family="Arial" font-size="18.00">Systems may mask unsafe behaviour during evaluation, undermining alignment</text>
<text xml:space="preserve" text-anchor="start" x="7020.23" y="-494.1" font-family="Arial" font-size="18.00"> &#160;&#160;&#160;&#160;&#160;&#160;&#160;&#160;&#160;&#160;&#160;&#160;&#160;&#160;&#160;</text>
</g>
<!-- C5&#45;&gt;C_I5 -->
<g id="edge14" class="edge">
<title>C5&#45;&gt;C_I5</title>
<path fill="none" stroke="#666666" stroke-width="2" d="M6309.45,-456.72C6285.95,-453.92 6262.66,-451.25 6239.98,-448.8 5675.43,-387.81 5022.09,-337.72 4603.09,-308.23"/>
<polygon fill="#666666" stroke="#666666" stroke-width="2" points="4603.38,-304.74 4593.16,-307.53 4602.89,-311.72 4603.38,-304.74"/>
<text xml:space="preserve" text-anchor="middle" x="5370.96" y="-377.27" font-family="Arial" font-size="16.00">mitigated_by (Conf: 1)</text>
</g>
<!-- C5&#45;&gt;C_I6 -->
<g id="edge15" class="edge">
<title>C5&#45;&gt;C_I6</title>
<path fill="none" stroke="#666666" stroke-width="2" d="M6599.36,-456.81C6534.93,-421.57 6450.42,-375.35 6383.81,-338.93"/>
<polygon fill="#666666" stroke="#666666" stroke-width="2" points="6385.55,-335.89 6375.1,-334.16 6382.19,-342.03 6385.55,-335.89"/>
<text xml:space="preserve" text-anchor="middle" x="6406.31" y="-398.26" font-family="Arial" font-size="16.00">mitigated_by (Conf: 1)</text>
</g>
<!-- C_I8 -->
<g id="node18" class="node">
<title>C_I8</title>
<path fill="lightgreen" stroke="black" d="M7546.7,-332.4C7546.7,-332.4 6691.25,-332.4 6691.25,-332.4 6685.25,-332.4 6679.25,-326.4 6679.25,-320.4 6679.25,-320.4 6679.25,-236.4 6679.25,-236.4 6679.25,-230.4 6685.25,-224.4 6691.25,-224.4 6691.25,-224.4 7546.7,-224.4 7546.7,-224.4 7552.7,-224.4 7558.7,-230.4 7558.7,-236.4 7558.7,-236.4 7558.7,-320.4 7558.7,-320.4 7558.7,-326.4 7552.7,-332.4 7546.7,-332.4"/>
<text xml:space="preserve" text-anchor="start" x="6874.48" y="-287.4" font-family="Arial" font-size="18.00"> &#160;&#160;&#160;&#160;&#160;&#160;&#160;&#160;&#160;&#160;&#160;&#160;&#160;&#160;&#160;&#160;&#160;&#160;&#160;</text>
<text xml:space="preserve" text-anchor="start" x="6979.48" y="-287.4" font-family="Arial" font-weight="bold" font-size="20.00">Deception&#45;focused red&#45;team evaluations</text>
<text xml:space="preserve" text-anchor="start" x="6700.85" y="-269.3" font-family="Arial" font-size="18.00"> &#160;&#160;&#160;&#160;&#160;&#160;&#160;&#160;&#160;&#160;&#160;&#160;&#160;&#160;&#160;&#160;&#160;&#160;&#160;</text>
<text xml:space="preserve" text-anchor="start" x="6805.85" y="-269.3" font-family="Arial" font-size="18.00">Extensive prompt suites to probe and expose deceptive tendencies before release</text>
<text xml:space="preserve" text-anchor="start" x="7453.1" y="-269.3" font-family="Arial" font-size="18.00"> &#160;&#160;&#160;&#160;&#160;&#160;&#160;&#160;&#160;&#160;&#160;&#160;&#160;&#160;&#160;</text>
<text xml:space="preserve" text-anchor="start" x="7081.1" y="-253.2" font-family="Arial" font-size="16.00" fill="darkred">Maturity: 3</text>
</g>
<!-- C5&#45;&gt;C_I8 -->
<g id="edge16" class="edge">
<title>C5&#45;&gt;C_I8</title>
<path fill="none" stroke="#666666" stroke-width="2" d="M6794.59,-456.81C6859.02,-421.57 6943.53,-375.35 7010.14,-338.93"/>
<polygon fill="#666666" stroke="#666666" stroke-width="2" points="7011.76,-342.03 7018.85,-334.16 7008.4,-335.89 7011.76,-342.03"/>
<text xml:space="preserve" text-anchor="middle" x="6797.14" y="-379.51" font-family="Arial" font-size="16.00">protected_against_by (Conf: 1)</text>
</g>
<!-- C7 -->
<g id="node14" class="node">
<title>C7</title>
<path fill="lightblue" stroke="black" d="M4566.08,-565.2C4566.08,-565.2 3775.88,-565.2 3775.88,-565.2 3769.88,-565.2 3763.88,-559.2 3763.88,-553.2 3763.88,-553.2 3763.88,-469.2 3763.88,-469.2 3763.88,-463.2 3769.88,-457.2 3775.88,-457.2 3775.88,-457.2 4566.08,-457.2 4566.08,-457.2 4572.08,-457.2 4578.08,-463.2 4578.08,-469.2 4578.08,-469.2 4578.08,-553.2 4578.08,-553.2 4578.08,-559.2 4572.08,-565.2 4566.08,-565.2"/>
<text xml:space="preserve" text-anchor="start" x="3906.6" y="-512.2" font-family="Arial" font-size="18.00"> &#160;&#160;&#160;&#160;&#160;&#160;&#160;&#160;&#160;&#160;&#160;&#160;&#160;&#160;&#160;&#160;&#160;&#160;&#160;</text>
<text xml:space="preserve" text-anchor="start" x="4011.6" y="-512.2" font-family="Arial" font-weight="bold" font-size="20.00">Behavioural inconsistency signals deception</text>
<text xml:space="preserve" text-anchor="start" x="3785.48" y="-494.1" font-family="Arial" font-size="18.00"> &#160;&#160;&#160;&#160;&#160;&#160;&#160;&#160;&#160;&#160;&#160;&#160;&#160;&#160;&#160;&#160;&#160;&#160;&#160;</text>
<text xml:space="preserve" text-anchor="start" x="3890.48" y="-494.1" font-family="Arial" font-size="18.00">Differences across semantically equivalent prompts can reveal dishonesty</text>
<text xml:space="preserve" text-anchor="start" x="4472.48" y="-494.1" font-family="Arial" font-size="18.00"> &#160;&#160;&#160;&#160;&#160;&#160;&#160;&#160;&#160;&#160;&#160;&#160;&#160;&#160;&#160;</text>
</g>
<!-- C7&#45;&gt;C_I5 -->
<g id="edge10" class="edge">
<title>C7&#45;&gt;C_I5</title>
<path fill="none" stroke="#666666" stroke-width="2" d="M4170.98,-456.96C4170.98,-423.76 4170.98,-380.78 4170.98,-345.42"/>
<polygon fill="#666666" stroke="#666666" stroke-width="2" points="4174.48,-345.8 4170.98,-335.8 4167.48,-345.8 4174.48,-345.8"/>
<text xml:space="preserve" text-anchor="middle" x="4109.1" y="-398.75" font-family="Arial" font-size="16.00">enables (Conf: 2)</text>
</g>
<!-- C8 -->
<g id="node15" class="node">
<title>C8</title>
<path fill="lightblue" stroke="black" d="M7873.83,-565.2C7873.83,-565.2 7196.12,-565.2 7196.12,-565.2 7190.12,-565.2 7184.12,-559.2 7184.12,-553.2 7184.12,-553.2 7184.12,-469.2 7184.12,-469.2 7184.12,-463.2 7190.12,-457.2 7196.12,-457.2 7196.12,-457.2 7873.83,-457.2 7873.83,-457.2 7879.83,-457.2 7885.83,-463.2 7885.83,-469.2 7885.83,-469.2 7885.83,-553.2 7885.83,-553.2 7885.83,-559.2 7879.83,-565.2 7873.83,-565.2"/>
<text xml:space="preserve" text-anchor="start" x="7326.48" y="-512.2" font-family="Arial" font-size="18.00"> &#160;&#160;&#160;&#160;&#160;&#160;&#160;&#160;&#160;&#160;&#160;&#160;&#160;&#160;&#160;&#160;&#160;&#160;&#160;</text>
<text xml:space="preserve" text-anchor="start" x="7431.48" y="-512.2" font-family="Arial" font-weight="bold" font-size="20.00">Representation&#45;output mismatch</text>
<text xml:space="preserve" text-anchor="start" x="7205.73" y="-494.1" font-family="Arial" font-size="18.00"> &#160;&#160;&#160;&#160;&#160;&#160;&#160;&#160;&#160;&#160;&#160;&#160;&#160;&#160;&#160;&#160;&#160;&#160;&#160;</text>
<text xml:space="preserve" text-anchor="start" x="7310.73" y="-494.1" font-family="Arial" font-size="18.00">Internal embeddings may not align with external statements</text>
<text xml:space="preserve" text-anchor="start" x="7780.23" y="-494.1" font-family="Arial" font-size="18.00"> &#160;&#160;&#160;&#160;&#160;&#160;&#160;&#160;&#160;&#160;&#160;&#160;&#160;&#160;&#160;</text>
</g>
<!-- C8&#45;&gt;C_I6 -->
<g id="edge11" class="edge">
<title>C8&#45;&gt;C_I6</title>
<path fill="none" stroke="#666666" stroke-width="2" d="M7243.14,-456.74C7044.12,-420.29 6781.13,-372.12 6579.48,-335.18"/>
<polygon fill="#666666" stroke="#666666" stroke-width="2" points="6580.34,-331.78 6569.87,-333.42 6579.08,-338.66 6580.34,-331.78"/>
<text xml:space="preserve" text-anchor="middle" x="6842.96" y="-398.32" font-family="Arial" font-size="16.00">enables (Conf: 2)</text>
</g>
<!-- D_I9 -->
<g id="node21" class="node">
<title>D_I9</title>
<path fill="lightgreen" stroke="black" d="M2774.2,-108C2774.2,-108 2017.75,-108 2017.75,-108 2011.75,-108 2005.75,-102 2005.75,-96 2005.75,-96 2005.75,-12 2005.75,-12 2005.75,-6 2011.75,0 2017.75,0 2017.75,0 2774.2,0 2774.2,0 2780.2,0 2786.2,-6 2786.2,-12 2786.2,-12 2786.2,-96 2786.2,-96 2786.2,-102 2780.2,-108 2774.2,-108"/>
<text xml:space="preserve" text-anchor="start" x="2100.1" y="-63" font-family="Arial" font-size="18.00"> &#160;&#160;&#160;&#160;&#160;&#160;&#160;&#160;&#160;&#160;&#160;&#160;&#160;&#160;&#160;&#160;&#160;&#160;&#160;</text>
<text xml:space="preserve" text-anchor="start" x="2205.1" y="-63" font-family="Arial" font-weight="bold" font-size="20.00">Prefer cooperative tasks / avoid adversarial training</text>
<text xml:space="preserve" text-anchor="start" x="2027.35" y="-44.9" font-family="Arial" font-size="18.00"> &#160;&#160;&#160;&#160;&#160;&#160;&#160;&#160;&#160;&#160;&#160;&#160;&#160;&#160;&#160;&#160;&#160;&#160;&#160;</text>
<text xml:space="preserve" text-anchor="start" x="2132.35" y="-44.9" font-family="Arial" font-size="18.00">Task selection to reduce pressure for deceptive strategy development</text>
<text xml:space="preserve" text-anchor="start" x="2680.6" y="-44.9" font-family="Arial" font-size="18.00"> &#160;&#160;&#160;&#160;&#160;&#160;&#160;&#160;&#160;&#160;&#160;&#160;&#160;&#160;&#160;</text>
<text xml:space="preserve" text-anchor="start" x="2358.1" y="-28.8" font-family="Arial" font-size="16.00" fill="darkred">Maturity: 1</text>
</g>
<!-- D_C3&#45;&gt;D_I9 -->
<g id="edge17" class="edge">
<title>D_C3&#45;&gt;D_I9</title>
<path fill="none" stroke="#666666" stroke-width="2" d="M2395.98,-215.74C2395.98,-186.41 2395.98,-151.28 2395.98,-121.36"/>
<polygon fill="#666666" stroke="#666666" stroke-width="2" points="2399.48,-121.48 2395.98,-111.48 2392.48,-121.48 2399.48,-121.48"/>
<text xml:space="preserve" text-anchor="middle" x="2316.48" y="-165.49" font-family="Arial" font-size="16.00">mitigated_by (Conf: 1)</text>
</g>
<!-- D_C11 -->
<g id="node20" class="node">
<title>D_C11</title>
<path fill="lightblue" stroke="black" d="M9751.2,-1030.8C9751.2,-1030.8 9102.75,-1030.8 9102.75,-1030.8 9096.75,-1030.8 9090.75,-1024.8 9090.75,-1018.8 9090.75,-1018.8 9090.75,-934.8 9090.75,-934.8 9090.75,-928.8 9096.75,-922.8 9102.75,-922.8 9102.75,-922.8 9751.2,-922.8 9751.2,-922.8 9757.2,-922.8 9763.2,-928.8 9763.2,-934.8 9763.2,-934.8 9763.2,-1018.8 9763.2,-1018.8 9763.2,-1024.8 9757.2,-1030.8 9751.2,-1030.8"/>
<text xml:space="preserve" text-anchor="start" x="9173.85" y="-977.8" font-family="Arial" font-size="18.00"> &#160;&#160;&#160;&#160;&#160;&#160;&#160;&#160;&#160;&#160;&#160;&#160;&#160;&#160;&#160;&#160;&#160;&#160;&#160;</text>
<text xml:space="preserve" text-anchor="start" x="9278.85" y="-977.8" font-family="Arial" font-weight="bold" font-size="20.00">Representation control can suppress lying</text>
<text xml:space="preserve" text-anchor="start" x="9112.35" y="-959.7" font-family="Arial" font-size="18.00"> &#160;&#160;&#160;&#160;&#160;&#160;&#160;&#160;&#160;&#160;&#160;&#160;&#160;&#160;&#160;&#160;&#160;&#160;&#160;</text>
<text xml:space="preserve" text-anchor="start" x="9217.35" y="-959.7" font-family="Arial" font-size="18.00">Altering internal vectors flips honesty behaviour in LLMs</text>
<text xml:space="preserve" text-anchor="start" x="9657.6" y="-959.7" font-family="Arial" font-size="18.00"> &#160;&#160;&#160;&#160;&#160;&#160;&#160;&#160;&#160;&#160;&#160;&#160;&#160;&#160;&#160;</text>
</g>
<!-- D_I7 -->
<g id="node22" class="node">
<title>D_I7</title>
<path fill="lightgreen" stroke="black" d="M9796.58,-798C9796.58,-798 9057.38,-798 9057.38,-798 9051.38,-798 9045.38,-792 9045.38,-786 9045.38,-786 9045.38,-702 9045.38,-702 9045.38,-696 9051.38,-690 9057.38,-690 9057.38,-690 9796.58,-690 9796.58,-690 9802.58,-690 9808.58,-696 9808.58,-702 9808.58,-702 9808.58,-786 9808.58,-786 9808.58,-792 9802.58,-798 9796.58,-798"/>
<text xml:space="preserve" text-anchor="start" x="9227.85" y="-753" font-family="Arial" font-size="18.00"> &#160;&#160;&#160;&#160;&#160;&#160;&#160;&#160;&#160;&#160;&#160;&#160;&#160;&#160;&#160;&#160;&#160;&#160;&#160;</text>
<text xml:space="preserve" text-anchor="start" x="9332.85" y="-753" font-family="Arial" font-weight="bold" font-size="20.00">Representation control vectors</text>
<text xml:space="preserve" text-anchor="start" x="9066.98" y="-734.9" font-family="Arial" font-size="18.00"> &#160;&#160;&#160;&#160;&#160;&#160;&#160;&#160;&#160;&#160;&#160;&#160;&#160;&#160;&#160;&#160;&#160;&#160;&#160;</text>
<text xml:space="preserve" text-anchor="start" x="9171.98" y="-734.9" font-family="Arial" font-size="18.00">Direct manipulation of hidden states to toggle honesty in generation</text>
<text xml:space="preserve" text-anchor="start" x="9702.98" y="-734.9" font-family="Arial" font-size="18.00"> &#160;&#160;&#160;&#160;&#160;&#160;&#160;&#160;&#160;&#160;&#160;&#160;&#160;&#160;&#160;</text>
<text xml:space="preserve" text-anchor="start" x="9389.1" y="-718.8" font-family="Arial" font-size="16.00" fill="darkred">Maturity: 4</text>
</g>
<!-- D_C11&#45;&gt;D_I7 -->
<g id="edge18" class="edge">
<title>D_C11&#45;&gt;D_I7</title>
<path fill="none" stroke="#666666" stroke-width="2" d="M9426.98,-922.56C9426.98,-889.36 9426.98,-846.38 9426.98,-811.02"/>
<polygon fill="#666666" stroke="#666666" stroke-width="2" points="9430.48,-811.4 9426.98,-801.4 9423.48,-811.4 9430.48,-811.4"/>
<text xml:space="preserve" text-anchor="middle" x="9333.98" y="-864.35" font-family="Arial" font-size="16.00">implemented_by (Conf: 2)</text>
</g>
</g>
</svg>
