<?xml version="1.0" encoding="UTF-8" standalone="no"?>
<!DOCTYPE svg PUBLIC "-//W3C//DTD SVG 1.1//EN"
 "http://www.w3.org/Graphics/SVG/1.1/DTD/svg11.dtd">
<!-- Generated by graphviz version 13.1.2 (20250808.2320)
 -->
<!-- Pages: 1 -->
<svg width="4117pt" height="814pt"
 viewBox="0.00 0.00 4117.00 814.00" xmlns="http://www.w3.org/2000/svg" xmlns:xlink="http://www.w3.org/1999/xlink">
<g id="graph0" class="graph" transform="scale(1 1) rotate(0) translate(4 810.4)">
<polygon fill="white" stroke="none" points="-4,4 -4,-810.4 4112.7,-810.4 4112.7,4 -4,4"/>
<!-- over_reliance_chain_C1 -->
<g id="node1" class="node">
<title>over_reliance_chain_C1</title>
<path fill="lightblue" stroke="black" d="M3319.45,-806.4C3319.45,-806.4 2089,-806.4 2089,-806.4 2083,-806.4 2077,-800.4 2077,-794.4 2077,-794.4 2077,-693.6 2077,-693.6 2077,-687.6 2083,-681.6 2089,-681.6 2089,-681.6 3319.45,-681.6 3319.45,-681.6 3325.45,-681.6 3331.45,-687.6 3331.45,-693.6 3331.45,-693.6 3331.45,-794.4 3331.45,-794.4 3331.45,-800.4 3325.45,-806.4 3319.45,-806.4"/>
<text xml:space="preserve" text-anchor="start" x="2547.47" y="-772.1" font-family="Arial" font-size="18.00"> &#160;&#160;&#160;&#160;&#160;&#160;&#160;&#160;&#160;&#160;&#160;&#160;&#160;&#160;&#160;&#160;&#160;&#160;&#160;</text>
<text xml:space="preserve" text-anchor="start" x="2652.47" y="-772.1" font-family="Arial" font-weight="bold" font-size="22.00" fill="darkblue">over_reliance_chain</text>
<text xml:space="preserve" text-anchor="start" x="2098.6" y="-753.9" font-family="Arial" font-size="18.00"> &#160;&#160;&#160;&#160;&#160;&#160;&#160;&#160;&#160;&#160;&#160;&#160;&#160;&#160;&#160;&#160;&#160;&#160;&#160;</text>
<text xml:space="preserve" text-anchor="start" x="2203.6" y="-753.9" font-family="Arial" font-style="italic" font-size="16.00">Shows how natural&#45;language explanations speed users but trigger over&#45;reliance, hurting accuracy, and how tested interface changes mitigate the problem.</text>
<text xml:space="preserve" text-anchor="start" x="2481.1" y="-716" font-family="Arial" font-size="18.00"> &#160;&#160;&#160;&#160;&#160;&#160;&#160;&#160;&#160;&#160;&#160;&#160;&#160;&#160;&#160;&#160;&#160;&#160;&#160;</text>
<text xml:space="preserve" text-anchor="start" x="2586.1" y="-716" font-family="Arial" font-weight="bold" font-size="20.00">LLM explanations speed verification</text>
<text xml:space="preserve" text-anchor="start" x="2215.22" y="-697.9" font-family="Arial" font-size="18.00"> &#160;&#160;&#160;&#160;&#160;&#160;&#160;&#160;&#160;&#160;&#160;&#160;&#160;&#160;&#160;&#160;&#160;&#160;&#160;</text>
<text xml:space="preserve" text-anchor="start" x="2320.22" y="-697.9" font-family="Arial" font-size="18.00">Reading model&#45;generated natural language explanations is faster than scanning retrieved passages.</text>
<text xml:space="preserve" text-anchor="start" x="3109.22" y="-697.9" font-family="Arial" font-size="18.00"> &#160;&#160;&#160;&#160;&#160;&#160;&#160;&#160;&#160;&#160;&#160;&#160;&#160;&#160;&#160;</text>
</g>
<!-- over_reliance_chain_C2 -->
<g id="node2" class="node">
<title>over_reliance_chain_C2</title>
<path fill="lightblue" stroke="black" d="M630.45,-565.2C630.45,-565.2 12,-565.2 12,-565.2 6,-565.2 0,-559.2 0,-553.2 0,-553.2 0,-469.2 0,-469.2 0,-463.2 6,-457.2 12,-457.2 12,-457.2 630.45,-457.2 630.45,-457.2 636.45,-457.2 642.45,-463.2 642.45,-469.2 642.45,-469.2 642.45,-553.2 642.45,-553.2 642.45,-559.2 636.45,-565.2 630.45,-565.2"/>
<text xml:space="preserve" text-anchor="start" x="71.85" y="-512.2" font-family="Arial" font-size="18.00"> &#160;&#160;&#160;&#160;&#160;&#160;&#160;&#160;&#160;&#160;&#160;&#160;&#160;&#160;&#160;&#160;&#160;&#160;&#160;</text>
<text xml:space="preserve" text-anchor="start" x="176.85" y="-512.2" font-family="Arial" font-weight="bold" font-size="20.00">User over&#45;reliance on wrong explanations</text>
<text xml:space="preserve" text-anchor="start" x="21.6" y="-494.1" font-family="Arial" font-size="18.00"> &#160;&#160;&#160;&#160;&#160;&#160;&#160;&#160;&#160;&#160;&#160;&#160;&#160;&#160;&#160;&#160;&#160;&#160;&#160;</text>
<text xml:space="preserve" text-anchor="start" x="126.6" y="-494.1" font-family="Arial" font-size="18.00">When explanations are wrong, users still trust them.</text>
<text xml:space="preserve" text-anchor="start" x="536.85" y="-494.1" font-family="Arial" font-size="18.00"> &#160;&#160;&#160;&#160;&#160;&#160;&#160;&#160;&#160;&#160;&#160;&#160;&#160;&#160;&#160;</text>
</g>
<!-- over_reliance_chain_C1&#45;&gt;over_reliance_chain_C2 -->
<g id="edge1" class="edge">
<title>over_reliance_chain_C1&#45;&gt;over_reliance_chain_C2</title>
<path fill="none" stroke="#666666" stroke-width="2" d="M2076.74,-705.44C1674.12,-677.71 1140.7,-634.21 671.22,-573.6 656.77,-571.73 641.99,-569.69 627.09,-567.51"/>
<polygon fill="#666666" stroke="#666666" stroke-width="2" points="627.94,-564.1 617.54,-566.1 626.92,-571.03 627.94,-564.1"/>
<text xml:space="preserve" text-anchor="middle" x="1285" y="-650.39" font-family="Arial" font-size="16.00">causes (Conf: 3)</text>
</g>
<!-- retrieval_recall_chain_C5 -->
<g id="node6" class="node">
<title>retrieval_recall_chain_C5</title>
<path fill="lightblue" stroke="black" d="M3223.45,-573.6C3223.45,-573.6 2185,-573.6 2185,-573.6 2179,-573.6 2173,-567.6 2173,-561.6 2173,-561.6 2173,-460.8 2173,-460.8 2173,-454.8 2179,-448.8 2185,-448.8 2185,-448.8 3223.45,-448.8 3223.45,-448.8 3229.45,-448.8 3235.45,-454.8 3235.45,-460.8 3235.45,-460.8 3235.45,-561.6 3235.45,-561.6 3235.45,-567.6 3229.45,-573.6 3223.45,-573.6"/>
<text xml:space="preserve" text-anchor="start" x="2541.1" y="-539.3" font-family="Arial" font-size="18.00"> &#160;&#160;&#160;&#160;&#160;&#160;&#160;&#160;&#160;&#160;&#160;&#160;&#160;&#160;&#160;&#160;&#160;&#160;&#160;</text>
<text xml:space="preserve" text-anchor="start" x="2646.1" y="-539.3" font-family="Arial" font-weight="bold" font-size="22.00" fill="darkblue">retrieval_recall_chain</text>
<text xml:space="preserve" text-anchor="start" x="2194.6" y="-521.1" font-family="Arial" font-size="18.00"> &#160;&#160;&#160;&#160;&#160;&#160;&#160;&#160;&#160;&#160;&#160;&#160;&#160;&#160;&#160;&#160;&#160;&#160;&#160;</text>
<text xml:space="preserve" text-anchor="start" x="2299.6" y="-521.1" font-family="Arial" font-style="italic" font-size="16.00">Illustrates how evidence recall controls explanation accuracy and downstream human performance, motivating better retrievers.</text>
<text xml:space="preserve" text-anchor="start" x="2421.1" y="-483.2" font-family="Arial" font-size="18.00"> &#160;&#160;&#160;&#160;&#160;&#160;&#160;&#160;&#160;&#160;&#160;&#160;&#160;&#160;&#160;&#160;&#160;&#160;&#160;</text>
<text xml:space="preserve" text-anchor="start" x="2526.1" y="-483.2" font-family="Arial" font-weight="bold" font-size="20.00">High retrieval recall boosts explanation accuracy</text>
<text xml:space="preserve" text-anchor="start" x="2287.6" y="-465.1" font-family="Arial" font-size="18.00"> &#160;&#160;&#160;&#160;&#160;&#160;&#160;&#160;&#160;&#160;&#160;&#160;&#160;&#160;&#160;&#160;&#160;&#160;&#160;</text>
<text xml:space="preserve" text-anchor="start" x="2392.6" y="-465.1" font-family="Arial" font-size="18.00">Explanations reach 80 % accuracy when all evidence retrieved vs 68 % when not.</text>
<text xml:space="preserve" text-anchor="start" x="3036.85" y="-465.1" font-family="Arial" font-size="18.00"> &#160;&#160;&#160;&#160;&#160;&#160;&#160;&#160;&#160;&#160;&#160;&#160;&#160;&#160;&#160;</text>
</g>
<!-- over_reliance_chain_C1&#45;&gt;retrieval_recall_chain_C5 -->
<!-- over_reliance_chain_C3 -->
<g id="node3" class="node">
<title>over_reliance_chain_C3</title>
<path fill="lightblue" stroke="black" d="M1397.7,-332.4C1397.7,-332.4 672.75,-332.4 672.75,-332.4 666.75,-332.4 660.75,-326.4 660.75,-320.4 660.75,-320.4 660.75,-236.4 660.75,-236.4 660.75,-230.4 666.75,-224.4 672.75,-224.4 672.75,-224.4 1397.7,-224.4 1397.7,-224.4 1403.7,-224.4 1409.7,-230.4 1409.7,-236.4 1409.7,-236.4 1409.7,-320.4 1409.7,-320.4 1409.7,-326.4 1403.7,-332.4 1397.7,-332.4"/>
<text xml:space="preserve" text-anchor="start" x="840.22" y="-279.4" font-family="Arial" font-size="18.00"> &#160;&#160;&#160;&#160;&#160;&#160;&#160;&#160;&#160;&#160;&#160;&#160;&#160;&#160;&#160;&#160;&#160;&#160;&#160;</text>
<text xml:space="preserve" text-anchor="start" x="945.22" y="-279.4" font-family="Arial" font-weight="bold" font-size="20.00">Accuracy drop below baseline</text>
<text xml:space="preserve" text-anchor="start" x="682.35" y="-261.3" font-family="Arial" font-size="18.00"> &#160;&#160;&#160;&#160;&#160;&#160;&#160;&#160;&#160;&#160;&#160;&#160;&#160;&#160;&#160;&#160;&#160;&#160;&#160;</text>
<text xml:space="preserve" text-anchor="start" x="787.35" y="-261.3" font-family="Arial" font-size="18.00">Over&#45;reliance drives human accuracy to 35 %, worse than no aid.</text>
<text xml:space="preserve" text-anchor="start" x="1304.1" y="-261.3" font-family="Arial" font-size="18.00"> &#160;&#160;&#160;&#160;&#160;&#160;&#160;&#160;&#160;&#160;&#160;&#160;&#160;&#160;&#160;</text>
</g>
<!-- over_reliance_chain_C2&#45;&gt;over_reliance_chain_C3 -->
<g id="edge2" class="edge">
<title>over_reliance_chain_C2&#45;&gt;over_reliance_chain_C3</title>
<path fill="none" stroke="#666666" stroke-width="2" d="M486.38,-456.81C597.55,-420.88 744.05,-373.52 857.72,-336.78"/>
<polygon fill="#666666" stroke="#666666" stroke-width="2" points="858.69,-340.14 867.13,-333.74 856.54,-333.48 858.69,-340.14"/>
<text xml:space="preserve" text-anchor="middle" x="613.81" y="-398.44" font-family="Arial" font-size="16.00">leads_to (Conf: 3)</text>
</g>
<!-- over_reliance_chain_I2 -->
<g id="node4" class="node">
<title>over_reliance_chain_I2</title>
<path fill="lightgreen" stroke="black" d="M1357.95,-565.2C1357.95,-565.2 712.5,-565.2 712.5,-565.2 706.5,-565.2 700.5,-559.2 700.5,-553.2 700.5,-553.2 700.5,-469.2 700.5,-469.2 700.5,-463.2 706.5,-457.2 712.5,-457.2 712.5,-457.2 1357.95,-457.2 1357.95,-457.2 1363.95,-457.2 1369.95,-463.2 1369.95,-469.2 1369.95,-469.2 1369.95,-553.2 1369.95,-553.2 1369.95,-559.2 1363.95,-565.2 1357.95,-565.2"/>
<text xml:space="preserve" text-anchor="start" x="864.6" y="-512.2" font-family="Arial" font-size="18.00"> &#160;&#160;&#160;&#160;&#160;&#160;&#160;&#160;&#160;&#160;&#160;&#160;&#160;&#160;&#160;&#160;&#160;&#160;&#160;</text>
<text xml:space="preserve" text-anchor="start" x="969.6" y="-512.2" font-family="Arial" font-weight="bold" font-size="20.00">Contrastive explanations</text>
<text xml:space="preserve" text-anchor="start" x="722.1" y="-494.1" font-family="Arial" font-size="18.00"> &#160;&#160;&#160;&#160;&#160;&#160;&#160;&#160;&#160;&#160;&#160;&#160;&#160;&#160;&#160;&#160;&#160;&#160;&#160;</text>
<text xml:space="preserve" text-anchor="start" x="827.1" y="-494.1" font-family="Arial" font-size="18.00">Show both supporting and refuting GPT&#45;3.5 arguments.</text>
<text xml:space="preserve" text-anchor="start" x="1264.35" y="-494.1" font-family="Arial" font-size="18.00"> &#160;&#160;&#160;&#160;&#160;&#160;&#160;&#160;&#160;&#160;&#160;&#160;&#160;&#160;&#160;</text>
</g>
<!-- over_reliance_chain_I2&#45;&gt;over_reliance_chain_C3 -->
<g id="edge3" class="edge">
<title>over_reliance_chain_I2&#45;&gt;over_reliance_chain_C3</title>
<path fill="none" stroke="#666666" stroke-width="2" d="M1035.22,-456.96C1035.22,-423.76 1035.22,-380.78 1035.22,-345.42"/>
<polygon fill="#666666" stroke="#666666" stroke-width="2" points="1038.73,-345.8 1035.23,-335.8 1031.73,-345.8 1038.73,-345.8"/>
<text xml:space="preserve" text-anchor="middle" x="969.22" y="-398.75" font-family="Arial" font-size="16.00">mitigates (Conf: 3)</text>
</g>
<!-- over_reliance_chain_I1 -->
<g id="node5" class="node">
<title>over_reliance_chain_I1</title>
<path fill="lightgreen" stroke="black" d="M2102.57,-565.2C2102.57,-565.2 1439.88,-565.2 1439.88,-565.2 1433.88,-565.2 1427.88,-559.2 1427.88,-553.2 1427.88,-553.2 1427.88,-469.2 1427.88,-469.2 1427.88,-463.2 1433.88,-457.2 1439.88,-457.2 1439.88,-457.2 2102.57,-457.2 2102.57,-457.2 2108.57,-457.2 2114.57,-463.2 2114.57,-469.2 2114.57,-469.2 2114.57,-553.2 2114.57,-553.2 2114.57,-559.2 2108.57,-565.2 2102.57,-565.2"/>
<text xml:space="preserve" text-anchor="start" x="1576.22" y="-512.2" font-family="Arial" font-size="18.00"> &#160;&#160;&#160;&#160;&#160;&#160;&#160;&#160;&#160;&#160;&#160;&#160;&#160;&#160;&#160;&#160;&#160;&#160;&#160;</text>
<text xml:space="preserve" text-anchor="start" x="1681.22" y="-512.2" font-family="Arial" font-weight="bold" font-size="20.00">Show retrieved passages only</text>
<text xml:space="preserve" text-anchor="start" x="1449.47" y="-494.1" font-family="Arial" font-size="18.00"> &#160;&#160;&#160;&#160;&#160;&#160;&#160;&#160;&#160;&#160;&#160;&#160;&#160;&#160;&#160;&#160;&#160;&#160;&#160;</text>
<text xml:space="preserve" text-anchor="start" x="1554.47" y="-494.1" font-family="Arial" font-size="18.00">Provide top&#45;k Wikipedia evidence instead of explanations.</text>
<text xml:space="preserve" text-anchor="start" x="2008.97" y="-494.1" font-family="Arial" font-size="18.00"> &#160;&#160;&#160;&#160;&#160;&#160;&#160;&#160;&#160;&#160;&#160;&#160;&#160;&#160;&#160;</text>
</g>
<!-- over_reliance_chain_I1&#45;&gt;over_reliance_chain_C3 -->
<g id="edge4" class="edge">
<title>over_reliance_chain_I1&#45;&gt;over_reliance_chain_C3</title>
<path fill="none" stroke="#666666" stroke-width="2" d="M1600.98,-456.81C1486.27,-420.84 1335.07,-373.43 1217.85,-336.67"/>
<polygon fill="#666666" stroke="#666666" stroke-width="2" points="1219.01,-333.36 1208.42,-333.71 1216.91,-340.04 1219.01,-333.36"/>
<text xml:space="preserve" text-anchor="middle" x="1337.31" y="-398.38" font-family="Arial" font-size="16.00">mitigates (Conf: 3)</text>
</g>
<!-- retrieval_recall_chain_C6 -->
<g id="node7" class="node">
<title>retrieval_recall_chain_C6</title>
<path fill="lightblue" stroke="black" d="M3979.2,-332.4C3979.2,-332.4 3209.25,-332.4 3209.25,-332.4 3203.25,-332.4 3197.25,-326.4 3197.25,-320.4 3197.25,-320.4 3197.25,-236.4 3197.25,-236.4 3197.25,-230.4 3203.25,-224.4 3209.25,-224.4 3209.25,-224.4 3979.2,-224.4 3979.2,-224.4 3985.2,-224.4 3991.2,-230.4 3991.2,-236.4 3991.2,-236.4 3991.2,-320.4 3991.2,-320.4 3991.2,-326.4 3985.2,-332.4 3979.2,-332.4"/>
<text xml:space="preserve" text-anchor="start" x="3338.1" y="-279.4" font-family="Arial" font-size="18.00"> &#160;&#160;&#160;&#160;&#160;&#160;&#160;&#160;&#160;&#160;&#160;&#160;&#160;&#160;&#160;&#160;&#160;&#160;&#160;</text>
<text xml:space="preserve" text-anchor="start" x="3443.1" y="-279.4" font-family="Arial" font-weight="bold" font-size="20.00">Low retrieval recall harms human accuracy</text>
<text xml:space="preserve" text-anchor="start" x="3218.85" y="-261.3" font-family="Arial" font-size="18.00"> &#160;&#160;&#160;&#160;&#160;&#160;&#160;&#160;&#160;&#160;&#160;&#160;&#160;&#160;&#160;&#160;&#160;&#160;&#160;</text>
<text xml:space="preserve" text-anchor="start" x="3323.85" y="-261.3" font-family="Arial" font-size="18.00">Across interfaces, missing evidence lowers users’ verification accuracy.</text>
<text xml:space="preserve" text-anchor="start" x="3885.6" y="-261.3" font-family="Arial" font-size="18.00"> &#160;&#160;&#160;&#160;&#160;&#160;&#160;&#160;&#160;&#160;&#160;&#160;&#160;&#160;&#160;</text>
</g>
<!-- retrieval_recall_chain_C5&#45;&gt;retrieval_recall_chain_C6 -->
<g id="edge5" class="edge">
<title>retrieval_recall_chain_C5&#45;&gt;retrieval_recall_chain_C6</title>
<path fill="none" stroke="#666666" stroke-width="2" d="M2942.73,-448.35C3077.28,-413.46 3244.2,-370.17 3375.39,-336.15"/>
<polygon fill="#666666" stroke="#666666" stroke-width="2" points="3376.25,-339.54 3385.05,-333.65 3374.49,-332.77 3376.25,-339.54"/>
<text xml:space="preserve" text-anchor="middle" x="3080.78" y="-394.22" font-family="Arial" font-size="16.00">contributes_to (Conf: 2)</text>
</g>
<!-- no_complementary_benefit_chain_C9 -->
<g id="node9" class="node">
<title>no_complementary_benefit_chain_C9</title>
<path fill="lightblue" stroke="black" d="M3075.7,-340.8C3075.7,-340.8 2332.75,-340.8 2332.75,-340.8 2326.75,-340.8 2320.75,-334.8 2320.75,-328.8 2320.75,-328.8 2320.75,-228 2320.75,-228 2320.75,-222 2326.75,-216 2332.75,-216 2332.75,-216 3075.7,-216 3075.7,-216 3081.7,-216 3087.7,-222 3087.7,-228 3087.7,-228 3087.7,-328.8 3087.7,-328.8 3087.7,-334.8 3081.7,-340.8 3075.7,-340.8"/>
<text xml:space="preserve" text-anchor="start" x="2475.1" y="-306.5" font-family="Arial" font-size="18.00"> &#160;&#160;&#160;&#160;&#160;&#160;&#160;&#160;&#160;&#160;&#160;&#160;&#160;&#160;&#160;&#160;&#160;&#160;&#160;</text>
<text xml:space="preserve" text-anchor="start" x="2580.1" y="-306.5" font-family="Arial" font-weight="bold" font-size="22.00" fill="darkblue">no_complementary_benefit_chain</text>
<text xml:space="preserve" text-anchor="start" x="2342.35" y="-288.3" font-family="Arial" font-size="18.00"> &#160;&#160;&#160;&#160;&#160;&#160;&#160;&#160;&#160;&#160;&#160;&#160;&#160;&#160;&#160;&#160;&#160;&#160;&#160;</text>
<text xml:space="preserve" text-anchor="start" x="2447.35" y="-288.3" font-family="Arial" font-style="italic" font-size="16.00">Combining explanations with retrieval offers no added benefit and increases time cost.</text>
<text xml:space="preserve" text-anchor="start" x="2406.85" y="-250.4" font-family="Arial" font-size="18.00"> &#160;&#160;&#160;&#160;&#160;&#160;&#160;&#160;&#160;&#160;&#160;&#160;&#160;&#160;&#160;&#160;&#160;&#160;&#160;</text>
<text xml:space="preserve" text-anchor="start" x="2511.85" y="-250.4" font-family="Arial" font-weight="bold" font-size="20.00">No benefit from combining retrieval and explanation</text>
<text xml:space="preserve" text-anchor="start" x="2393.72" y="-232.3" font-family="Arial" font-size="18.00"> &#160;&#160;&#160;&#160;&#160;&#160;&#160;&#160;&#160;&#160;&#160;&#160;&#160;&#160;&#160;&#160;&#160;&#160;&#160;</text>
<text xml:space="preserve" text-anchor="start" x="2498.72" y="-232.3" font-family="Arial" font-size="18.00">Accuracy same as retrieval alone but decisions slower.</text>
<text xml:space="preserve" text-anchor="start" x="2930.72" y="-232.3" font-family="Arial" font-size="18.00"> &#160;&#160;&#160;&#160;&#160;&#160;&#160;&#160;&#160;&#160;&#160;&#160;&#160;&#160;&#160;</text>
</g>
<!-- retrieval_recall_chain_C5&#45;&gt;no_complementary_benefit_chain_C9 -->
<!-- retrieval_recall_chain_I4 -->
<g id="node8" class="node">
<title>retrieval_recall_chain_I4</title>
<path fill="lightgreen" stroke="black" d="M4096.7,-798C4096.7,-798 3401.75,-798 3401.75,-798 3395.75,-798 3389.75,-792 3389.75,-786 3389.75,-786 3389.75,-702 3389.75,-702 3389.75,-696 3395.75,-690 3401.75,-690 3401.75,-690 4096.7,-690 4096.7,-690 4102.7,-690 4108.7,-696 4108.7,-702 4108.7,-702 4108.7,-786 4108.7,-786 4108.7,-792 4102.7,-798 4096.7,-798"/>
<text xml:space="preserve" text-anchor="start" x="3587.22" y="-745" font-family="Arial" font-size="18.00"> &#160;&#160;&#160;&#160;&#160;&#160;&#160;&#160;&#160;&#160;&#160;&#160;&#160;&#160;&#160;&#160;&#160;&#160;&#160;</text>
<text xml:space="preserve" text-anchor="start" x="3692.22" y="-745" font-family="Arial" font-weight="bold" font-size="20.00">Improve retriever recall</text>
<text xml:space="preserve" text-anchor="start" x="3411.35" y="-726.9" font-family="Arial" font-size="18.00"> &#160;&#160;&#160;&#160;&#160;&#160;&#160;&#160;&#160;&#160;&#160;&#160;&#160;&#160;&#160;&#160;&#160;&#160;&#160;</text>
<text xml:space="preserve" text-anchor="start" x="3516.35" y="-726.9" font-family="Arial" font-size="18.00">Upgrade or fine&#45;tune retriever before generating explanations.</text>
<text xml:space="preserve" text-anchor="start" x="4003.1" y="-726.9" font-family="Arial" font-size="18.00"> &#160;&#160;&#160;&#160;&#160;&#160;&#160;&#160;&#160;&#160;&#160;&#160;&#160;&#160;&#160;</text>
</g>
<!-- retrieval_recall_chain_I4&#45;&gt;retrieval_recall_chain_C5 -->
<g id="edge6" class="edge">
<title>retrieval_recall_chain_I4&#45;&gt;retrieval_recall_chain_C5</title>
<path fill="none" stroke="#666666" stroke-width="2" d="M3507.18,-689.54C3355,-655.93 3157.7,-612.36 2996.77,-576.81"/>
<polygon fill="#666666" stroke="#666666" stroke-width="2" points="2997.74,-573.44 2987.22,-574.7 2996.23,-580.28 2997.74,-573.44"/>
<text xml:space="preserve" text-anchor="middle" x="3179.92" y="-635.39" font-family="Arial" font-size="16.00">mitigates (Conf: 1)</text>
</g>
<!-- retrieval_recall_chain_I4&#45;&gt;retrieval_recall_chain_C6 -->
<g id="edge7" class="edge">
<title>retrieval_recall_chain_I4&#45;&gt;retrieval_recall_chain_C6</title>
<path fill="none" stroke="#666666" stroke-width="2" d="M3731.44,-689.82C3702.94,-604.55 3647.07,-437.46 3616.14,-344.94"/>
<polygon fill="#666666" stroke="#666666" stroke-width="2" points="3619.49,-343.92 3613,-335.54 3612.85,-346.14 3619.49,-343.92"/>
<text xml:space="preserve" text-anchor="middle" x="3605.82" y="-515.02" font-family="Arial" font-size="16.00">mitigates (Conf: 1)</text>
</g>
<!-- no_complementary_benefit_chain_I1 -->
<g id="node10" class="node">
<title>no_complementary_benefit_chain_I1</title>
<path fill="lightgreen" stroke="black" d="M2920.07,-108C2920.07,-108 2488.38,-108 2488.38,-108 2482.38,-108 2476.38,-102 2476.38,-96 2476.38,-96 2476.38,-12 2476.38,-12 2476.38,-6 2482.38,0 2488.38,0 2488.38,0 2920.07,0 2920.07,0 2926.07,0 2932.07,-6 2932.07,-12 2932.07,-12 2932.07,-96 2932.07,-96 2932.07,-102 2926.07,-108 2920.07,-108"/>
<text xml:space="preserve" text-anchor="start" x="2509.22" y="-55" font-family="Arial" font-size="18.00"> &#160;&#160;&#160;&#160;&#160;&#160;&#160;&#160;&#160;&#160;&#160;&#160;&#160;&#160;&#160;&#160;&#160;&#160;&#160;</text>
<text xml:space="preserve" text-anchor="start" x="2614.22" y="-55" font-family="Arial" font-weight="bold" font-size="20.00">Show retrieved passages only</text>
<text xml:space="preserve" text-anchor="start" x="2497.97" y="-36.9" font-family="Arial" font-size="18.00"> &#160;&#160;&#160;&#160;&#160;&#160;&#160;&#160;&#160;&#160;&#160;&#160;&#160;&#160;&#160;&#160;&#160;&#160;&#160;</text>
<text xml:space="preserve" text-anchor="start" x="2602.97" y="-36.9" font-family="Arial" font-size="18.00">Default to retrieval interface.</text>
<text xml:space="preserve" text-anchor="start" x="2826.47" y="-36.9" font-family="Arial" font-size="18.00"> &#160;&#160;&#160;&#160;&#160;&#160;&#160;&#160;&#160;&#160;&#160;&#160;&#160;&#160;&#160;</text>
</g>
<!-- no_complementary_benefit_chain_C9&#45;&gt;no_complementary_benefit_chain_I1 -->
<g id="edge8" class="edge">
<title>no_complementary_benefit_chain_C9&#45;&gt;no_complementary_benefit_chain_I1</title>
<path fill="none" stroke="#666666" stroke-width="2" d="M2704.22,-215.74C2704.22,-186.41 2704.22,-151.28 2704.22,-121.36"/>
<polygon fill="#666666" stroke="#666666" stroke-width="2" points="2707.73,-121.48 2704.23,-111.48 2700.73,-121.48 2707.73,-121.48"/>
<text xml:space="preserve" text-anchor="middle" x="2645.35" y="-165.49" font-family="Arial" font-size="16.00">implies (Conf: 2)</text>
</g>
</g>
</svg>
