<?xml version="1.0" encoding="UTF-8" standalone="no"?>
<!DOCTYPE svg PUBLIC "-//W3C//DTD SVG 1.1//EN"
 "http://www.w3.org/Graphics/SVG/1.1/DTD/svg11.dtd">
<!-- Generated by graphviz version 13.1.2 (20250808.2320)
 -->
<!-- Pages: 1 -->
<svg width="3527pt" height="1280pt"
 viewBox="0.00 0.00 3527.00 1280.00" xmlns="http://www.w3.org/2000/svg" xmlns:xlink="http://www.w3.org/1999/xlink">
<g id="graph0" class="graph" transform="scale(1 1) rotate(0) translate(4 1276)">
<polygon fill="white" stroke="none" points="-4,4 -4,-1276 3523.32,-1276 3523.32,4 -4,4"/>
<!-- C1_P3 -->
<g id="node1" class="node">
<title>C1_P3</title>
<path fill="lightblue" stroke="black" d="M3498.7,-1272C3498.7,-1272 2521.75,-1272 2521.75,-1272 2515.75,-1272 2509.75,-1266 2509.75,-1260 2509.75,-1260 2509.75,-1159.2 2509.75,-1159.2 2509.75,-1153.2 2515.75,-1147.2 2521.75,-1147.2 2521.75,-1147.2 3498.7,-1147.2 3498.7,-1147.2 3504.7,-1147.2 3510.7,-1153.2 3510.7,-1159.2 3510.7,-1159.2 3510.7,-1260 3510.7,-1260 3510.7,-1266 3504.7,-1272 3498.7,-1272"/>
<text xml:space="preserve" text-anchor="start" x="2943.85" y="-1237.7" font-family="Arial" font-size="18.00"> &#160;&#160;&#160;&#160;&#160;&#160;&#160;&#160;&#160;&#160;&#160;&#160;&#160;&#160;&#160;&#160;&#160;&#160;&#160;</text>
<text xml:space="preserve" text-anchor="start" x="3048.85" y="-1237.7" font-family="Arial" font-weight="bold" font-size="22.00" fill="darkblue">C1</text>
<text xml:space="preserve" text-anchor="start" x="2573.72" y="-1219.5" font-family="Arial" font-size="18.00"> &#160;&#160;&#160;&#160;&#160;&#160;&#160;&#160;&#160;&#160;&#160;&#160;&#160;&#160;&#160;&#160;&#160;&#160;&#160;</text>
<text xml:space="preserve" text-anchor="start" x="2678.72" y="-1219.5" font-family="Arial" font-style="italic" font-size="16.00">Creating and using a dataset with verifiable truth enables research and model training on textual deception.</text>
<text xml:space="preserve" text-anchor="start" x="2597.72" y="-1181.6" font-family="Arial" font-size="18.00"> &#160;&#160;&#160;&#160;&#160;&#160;&#160;&#160;&#160;&#160;&#160;&#160;&#160;&#160;&#160;&#160;&#160;&#160;&#160;</text>
<text xml:space="preserve" text-anchor="start" x="2702.72" y="-1181.6" font-family="Arial" font-weight="bold" font-size="20.00">Absence of conversational dataset with objective ground&#45;truth for deception</text>
<text xml:space="preserve" text-anchor="start" x="2531.35" y="-1163.5" font-family="Arial" font-size="18.00"> &#160;&#160;&#160;&#160;&#160;&#160;&#160;&#160;&#160;&#160;&#160;&#160;&#160;&#160;&#160;&#160;&#160;&#160;&#160;</text>
<text xml:space="preserve" text-anchor="start" x="2636.35" y="-1163.5" font-family="Arial" font-size="18.00">Prior work lacked text&#45;only datasets where each utterance could be checked against known facts.</text>
<text xml:space="preserve" text-anchor="start" x="3405.1" y="-1163.5" font-family="Arial" font-size="18.00"> &#160;&#160;&#160;&#160;&#160;&#160;&#160;&#160;&#160;&#160;&#160;&#160;&#160;&#160;&#160;</text>
</g>
<!-- C1_T4TEXT -->
<g id="node2" class="node">
<title>C1_T4TEXT</title>
<path fill="lightblue" stroke="black" d="M2013.82,-1030.8C2013.82,-1030.8 902.62,-1030.8 902.62,-1030.8 896.62,-1030.8 890.62,-1024.8 890.62,-1018.8 890.62,-1018.8 890.62,-934.8 890.62,-934.8 890.62,-928.8 896.62,-922.8 902.62,-922.8 902.62,-922.8 2013.82,-922.8 2013.82,-922.8 2019.82,-922.8 2025.82,-928.8 2025.82,-934.8 2025.82,-934.8 2025.82,-1018.8 2025.82,-1018.8 2025.82,-1024.8 2019.82,-1030.8 2013.82,-1030.8"/>
<text xml:space="preserve" text-anchor="start" x="1138.35" y="-977.8" font-family="Arial" font-size="18.00"> &#160;&#160;&#160;&#160;&#160;&#160;&#160;&#160;&#160;&#160;&#160;&#160;&#160;&#160;&#160;&#160;&#160;&#160;&#160;</text>
<text xml:space="preserve" text-anchor="start" x="1243.35" y="-977.8" font-family="Arial" font-weight="bold" font-size="20.00">T4TEXT dataset with affidavit&#45;grounded deception labels</text>
<text xml:space="preserve" text-anchor="start" x="912.22" y="-959.7" font-family="Arial" font-size="18.00"> &#160;&#160;&#160;&#160;&#160;&#160;&#160;&#160;&#160;&#160;&#160;&#160;&#160;&#160;&#160;&#160;&#160;&#160;&#160;</text>
<text xml:space="preserve" text-anchor="start" x="1017.22" y="-959.7" font-family="Arial" font-size="18.00">Transcribed and cleaned 150 TV&#45;show sessions, providing conversation, affidavit facts and true contestant identity.</text>
<text xml:space="preserve" text-anchor="start" x="1920.22" y="-959.7" font-family="Arial" font-size="18.00"> &#160;&#160;&#160;&#160;&#160;&#160;&#160;&#160;&#160;&#160;&#160;&#160;&#160;&#160;&#160;</text>
</g>
<!-- C1_P3&#45;&gt;C1_T4TEXT -->
<g id="edge1" class="edge">
<title>C1_P3&#45;&gt;C1_T4TEXT</title>
<path fill="none" stroke="#666666" stroke-width="2" d="M2594.06,-1146.71C2356.23,-1111.34 2060.49,-1067.36 1830.4,-1033.15"/>
<polygon fill="#666666" stroke="#666666" stroke-width="2" points="1831.17,-1029.72 1820.76,-1031.71 1830.14,-1036.65 1831.17,-1029.72"/>
<text xml:space="preserve" text-anchor="middle" x="2097.46" y="-1092.53" font-family="Arial" font-size="16.00">motivates creation of (Conf: 3)</text>
</g>
<!-- C2_P1P2A1 -->
<g id="node4" class="node">
<title>C2_P1P2A1</title>
<path fill="lightblue" stroke="black" d="M3507.32,-1039.2C3507.32,-1039.2 2513.12,-1039.2 2513.12,-1039.2 2507.12,-1039.2 2501.12,-1033.2 2501.12,-1027.2 2501.12,-1027.2 2501.12,-926.4 2501.12,-926.4 2501.12,-920.4 2507.12,-914.4 2513.12,-914.4 2513.12,-914.4 3507.32,-914.4 3507.32,-914.4 3513.32,-914.4 3519.32,-920.4 3519.32,-926.4 3519.32,-926.4 3519.32,-1027.2 3519.32,-1027.2 3519.32,-1033.2 3513.32,-1039.2 3507.32,-1039.2"/>
<text xml:space="preserve" text-anchor="start" x="2943.85" y="-1004.9" font-family="Arial" font-size="18.00"> &#160;&#160;&#160;&#160;&#160;&#160;&#160;&#160;&#160;&#160;&#160;&#160;&#160;&#160;&#160;&#160;&#160;&#160;&#160;</text>
<text xml:space="preserve" text-anchor="start" x="3048.85" y="-1004.9" font-family="Arial" font-weight="bold" font-size="22.00" fill="darkblue">C2</text>
<text xml:space="preserve" text-anchor="start" x="2559.47" y="-986.7" font-family="Arial" font-size="18.00"> &#160;&#160;&#160;&#160;&#160;&#160;&#160;&#160;&#160;&#160;&#160;&#160;&#160;&#160;&#160;&#160;&#160;&#160;&#160;</text>
<text xml:space="preserve" text-anchor="start" x="2664.47" y="-986.7" font-family="Arial" font-style="italic" font-size="16.00">Designing a bottleneck architecture that extracts linguistic cues allows near&#45;human textual deception detection.</text>
<text xml:space="preserve" text-anchor="start" x="2637.85" y="-948.8" font-family="Arial" font-size="18.00"> &#160;&#160;&#160;&#160;&#160;&#160;&#160;&#160;&#160;&#160;&#160;&#160;&#160;&#160;&#160;&#160;&#160;&#160;&#160;</text>
<text xml:space="preserve" text-anchor="start" x="2742.85" y="-948.8" font-family="Arial" font-weight="bold" font-size="20.00">Need for accurate text&#45;only deception detector using linguistic cues</text>
<text xml:space="preserve" text-anchor="start" x="2522.72" y="-930.7" font-family="Arial" font-size="18.00"> &#160;&#160;&#160;&#160;&#160;&#160;&#160;&#160;&#160;&#160;&#160;&#160;&#160;&#160;&#160;&#160;&#160;&#160;&#160;</text>
<text xml:space="preserve" text-anchor="start" x="2627.72" y="-930.7" font-family="Arial" font-size="18.00">Humans are weak and prior automatic systems rely on non&#45;text modalities or hand&#45;crafted features.</text>
<text xml:space="preserve" text-anchor="start" x="3413.72" y="-930.7" font-family="Arial" font-size="18.00"> &#160;&#160;&#160;&#160;&#160;&#160;&#160;&#160;&#160;&#160;&#160;&#160;&#160;&#160;&#160;</text>
</g>
<!-- C1_P3&#45;&gt;C2_P1P2A1 -->
<!-- C1_I1 -->
<g id="node3" class="node">
<title>C1_I1</title>
<path fill="lightgreen" stroke="black" d="M1465.58,-798C1465.58,-798 616.87,-798 616.87,-798 610.87,-798 604.87,-792 604.87,-786 604.87,-786 604.87,-702 604.87,-702 604.87,-696 610.87,-690 616.87,-690 616.87,-690 1465.58,-690 1465.58,-690 1471.58,-690 1477.58,-696 1477.58,-702 1477.58,-702 1477.58,-786 1477.58,-786 1477.58,-792 1471.58,-798 1465.58,-798"/>
<text xml:space="preserve" text-anchor="start" x="626.47" y="-753" font-family="Arial" font-size="18.00"> &#160;&#160;&#160;&#160;&#160;&#160;&#160;&#160;&#160;&#160;&#160;&#160;&#160;&#160;&#160;&#160;&#160;&#160;&#160;</text>
<text xml:space="preserve" text-anchor="start" x="731.47" y="-753" font-family="Arial" font-weight="bold" font-size="20.00">Release and utilisation of T4TEXT for training/evaluating deception detectors</text>
<text xml:space="preserve" text-anchor="start" x="627.22" y="-734.9" font-family="Arial" font-size="18.00"> &#160;&#160;&#160;&#160;&#160;&#160;&#160;&#160;&#160;&#160;&#160;&#160;&#160;&#160;&#160;&#160;&#160;&#160;&#160;</text>
<text xml:space="preserve" text-anchor="start" x="732.22" y="-734.9" font-family="Arial" font-size="18.00">Make dataset publicly available (CC&#45;BY) and employ it for benchmarking models.</text>
<text xml:space="preserve" text-anchor="start" x="1371.22" y="-734.9" font-family="Arial" font-size="18.00"> &#160;&#160;&#160;&#160;&#160;&#160;&#160;&#160;&#160;&#160;&#160;&#160;&#160;&#160;&#160;</text>
<text xml:space="preserve" text-anchor="start" x="1003.35" y="-718.8" font-family="Arial" font-size="16.00" fill="darkred">Maturity: 3</text>
</g>
<!-- C1_T4TEXT&#45;&gt;C1_I1 -->
<g id="edge2" class="edge">
<title>C1_T4TEXT&#45;&gt;C1_I1</title>
<path fill="none" stroke="#666666" stroke-width="2" d="M1361.77,-922.41C1298.1,-887.17 1214.59,-840.95 1148.77,-804.53"/>
<polygon fill="#666666" stroke="#666666" stroke-width="2" points="1150.63,-801.55 1140.18,-799.77 1147.24,-807.68 1150.63,-801.55"/>
<text xml:space="preserve" text-anchor="middle" x="1187.68" y="-863.86" font-family="Arial" font-size="16.00">enables (Conf: 3)</text>
</g>
<!-- C2_BOT_ARCH -->
<g id="node5" class="node">
<title>C2_BOT_ARCH</title>
<path fill="lightblue" stroke="black" d="M2507.07,-798C2507.07,-798 1547.38,-798 1547.38,-798 1541.38,-798 1535.38,-792 1535.38,-786 1535.38,-786 1535.38,-702 1535.38,-702 1535.38,-696 1541.38,-690 1547.38,-690 1547.38,-690 2507.07,-690 2507.07,-690 2513.07,-690 2519.07,-696 2519.07,-702 2519.07,-702 2519.07,-786 2519.07,-786 2519.07,-792 2513.07,-798 2507.07,-798"/>
<text xml:space="preserve" text-anchor="start" x="1556.97" y="-745" font-family="Arial" font-size="18.00"> &#160;&#160;&#160;&#160;&#160;&#160;&#160;&#160;&#160;&#160;&#160;&#160;&#160;&#160;&#160;&#160;&#160;&#160;&#160;</text>
<text xml:space="preserve" text-anchor="start" x="1661.97" y="-745" font-family="Arial" font-weight="bold" font-size="20.00">Bottleneck architecture extracting entailment, ambiguity, overconfidence, half&#45;truth cues</text>
<text xml:space="preserve" text-anchor="start" x="1631.6" y="-726.9" font-family="Arial" font-size="18.00"> &#160;&#160;&#160;&#160;&#160;&#160;&#160;&#160;&#160;&#160;&#160;&#160;&#160;&#160;&#160;&#160;&#160;&#160;&#160;</text>
<text xml:space="preserve" text-anchor="start" x="1736.6" y="-726.9" font-family="Arial" font-size="18.00">LLM pipeline that first classifies four cues per snippet then aggregates them.</text>
<text xml:space="preserve" text-anchor="start" x="2338.85" y="-726.9" font-family="Arial" font-size="18.00"> &#160;&#160;&#160;&#160;&#160;&#160;&#160;&#160;&#160;&#160;&#160;&#160;&#160;&#160;&#160;</text>
</g>
<!-- C2_P1P2A1&#45;&gt;C2_BOT_ARCH -->
<g id="edge3" class="edge">
<title>C2_P1P2A1&#45;&gt;C2_BOT_ARCH</title>
<path fill="none" stroke="#666666" stroke-width="2" d="M2746.8,-913.95C2597.74,-878.95 2412.71,-835.51 2267.61,-801.44"/>
<polygon fill="#666666" stroke="#666666" stroke-width="2" points="2268.51,-798.06 2257.97,-799.18 2266.91,-804.87 2268.51,-798.06"/>
<text xml:space="preserve" text-anchor="middle" x="2397.35" y="-859.75" font-family="Arial" font-size="16.00">motivates design of (Conf: 2)</text>
</g>
<!-- C3_BOT_ARCH_CUES -->
<g id="node9" class="node">
<title>C3_BOT_ARCH_CUES</title>
<path fill="lightblue" stroke="black" d="M3431.57,-806.4C3431.57,-806.4 2588.88,-806.4 2588.88,-806.4 2582.88,-806.4 2576.88,-800.4 2576.88,-794.4 2576.88,-794.4 2576.88,-693.6 2576.88,-693.6 2576.88,-687.6 2582.88,-681.6 2588.88,-681.6 2588.88,-681.6 3431.57,-681.6 3431.57,-681.6 3437.57,-681.6 3443.57,-687.6 3443.57,-693.6 3443.57,-693.6 3443.57,-794.4 3443.57,-794.4 3443.57,-800.4 3437.57,-806.4 3431.57,-806.4"/>
<text xml:space="preserve" text-anchor="start" x="2943.85" y="-772.1" font-family="Arial" font-size="18.00"> &#160;&#160;&#160;&#160;&#160;&#160;&#160;&#160;&#160;&#160;&#160;&#160;&#160;&#160;&#160;&#160;&#160;&#160;&#160;</text>
<text xml:space="preserve" text-anchor="start" x="3048.85" y="-772.1" font-family="Arial" font-weight="bold" font-size="22.00" fill="darkblue">C3</text>
<text xml:space="preserve" text-anchor="start" x="2598.47" y="-753.9" font-family="Arial" font-size="18.00"> &#160;&#160;&#160;&#160;&#160;&#160;&#160;&#160;&#160;&#160;&#160;&#160;&#160;&#160;&#160;&#160;&#160;&#160;&#160;</text>
<text xml:space="preserve" text-anchor="start" x="2703.47" y="-753.9" font-family="Arial" font-style="italic" font-size="16.00">Bottleneck cues provide interpretable explanations that can be mandated for safety&#45;critical LLM use.</text>
<text xml:space="preserve" text-anchor="start" x="2653.97" y="-716" font-family="Arial" font-size="18.00"> &#160;&#160;&#160;&#160;&#160;&#160;&#160;&#160;&#160;&#160;&#160;&#160;&#160;&#160;&#160;&#160;&#160;&#160;&#160;</text>
<text xml:space="preserve" text-anchor="start" x="2758.97" y="-716" font-family="Arial" font-weight="bold" font-size="20.00">Bottleneck architecture outputs explicit per&#45;snippet cue verdicts</text>
<text xml:space="preserve" text-anchor="start" x="2604.1" y="-697.9" font-family="Arial" font-size="18.00"> &#160;&#160;&#160;&#160;&#160;&#160;&#160;&#160;&#160;&#160;&#160;&#160;&#160;&#160;&#160;&#160;&#160;&#160;&#160;</text>
<text xml:space="preserve" text-anchor="start" x="2709.1" y="-697.9" font-family="Arial" font-size="18.00">Entailment, ambiguity, overconfidence, half&#45;truth labels accompany predictions.</text>
<text xml:space="preserve" text-anchor="start" x="3332.35" y="-697.9" font-family="Arial" font-size="18.00"> &#160;&#160;&#160;&#160;&#160;&#160;&#160;&#160;&#160;&#160;&#160;&#160;&#160;&#160;&#160;</text>
</g>
<!-- C2_P1P2A1&#45;&gt;C3_BOT_ARCH_CUES -->
<!-- C2_F2 -->
<g id="node6" class="node">
<title>C2_F2</title>
<path fill="lightblue" stroke="black" d="M1234.32,-565.2C1234.32,-565.2 474.12,-565.2 474.12,-565.2 468.12,-565.2 462.12,-559.2 462.12,-553.2 462.12,-553.2 462.12,-469.2 462.12,-469.2 462.12,-463.2 468.12,-457.2 474.12,-457.2 474.12,-457.2 1234.32,-457.2 1234.32,-457.2 1240.32,-457.2 1246.32,-463.2 1246.32,-469.2 1246.32,-469.2 1246.32,-553.2 1246.32,-553.2 1246.32,-559.2 1240.32,-565.2 1234.32,-565.2"/>
<text xml:space="preserve" text-anchor="start" x="563.22" y="-512.2" font-family="Arial" font-size="18.00"> &#160;&#160;&#160;&#160;&#160;&#160;&#160;&#160;&#160;&#160;&#160;&#160;&#160;&#160;&#160;&#160;&#160;&#160;&#160;</text>
<text xml:space="preserve" text-anchor="start" x="668.22" y="-512.2" font-family="Arial" font-weight="bold" font-size="20.00">GPT&#45;4 bottleneck model matches human accuracy</text>
<text xml:space="preserve" text-anchor="start" x="483.72" y="-494.1" font-family="Arial" font-size="18.00"> &#160;&#160;&#160;&#160;&#160;&#160;&#160;&#160;&#160;&#160;&#160;&#160;&#160;&#160;&#160;&#160;&#160;&#160;&#160;</text>
<text xml:space="preserve" text-anchor="start" x="588.72" y="-494.1" font-family="Arial" font-size="18.00">Empirical result: 39% accuracy vs 41% human; higher top&#45;2 accuracy.</text>
<text xml:space="preserve" text-anchor="start" x="1140.72" y="-494.1" font-family="Arial" font-size="18.00"> &#160;&#160;&#160;&#160;&#160;&#160;&#160;&#160;&#160;&#160;&#160;&#160;&#160;&#160;&#160;</text>
</g>
<!-- C2_BOT_ARCH&#45;&gt;C2_F2 -->
<g id="edge4" class="edge">
<title>C2_BOT_ARCH&#45;&gt;C2_F2</title>
<path fill="none" stroke="#666666" stroke-width="2" d="M1755.54,-689.54C1570.54,-653.14 1326.17,-605.06 1138.55,-568.14"/>
<polygon fill="#666666" stroke="#666666" stroke-width="2" points="1139.45,-564.75 1128.96,-566.26 1138.1,-571.62 1139.45,-564.75"/>
<text xml:space="preserve" text-anchor="middle" x="1364.21" y="-631.22" font-family="Arial" font-size="16.00">validated by (Conf: 3)</text>
</g>
<!-- C2.3 -->
<g id="node7" class="node">
<title>C2.3</title>
<path fill="lightblue" stroke="black" d="M780.45,-332.4C780.45,-332.4 12,-332.4 12,-332.4 6,-332.4 0,-326.4 0,-320.4 0,-320.4 0,-236.4 0,-236.4 0,-230.4 6,-224.4 12,-224.4 12,-224.4 780.45,-224.4 780.45,-224.4 786.45,-224.4 792.45,-230.4 792.45,-236.4 792.45,-236.4 792.45,-320.4 792.45,-320.4 792.45,-326.4 786.45,-332.4 780.45,-332.4"/>
<text xml:space="preserve" text-anchor="start" x="47.1" y="-279.4" font-family="Arial" font-size="18.00"> &#160;&#160;&#160;&#160;&#160;&#160;&#160;&#160;&#160;&#160;&#160;&#160;&#160;&#160;&#160;&#160;&#160;&#160;&#160;</text>
<text xml:space="preserve" text-anchor="start" x="152.1" y="-279.4" font-family="Arial" font-weight="bold" font-size="20.00">Linguistic cue extraction is sufficient for near&#45;human detection</text>
<text xml:space="preserve" text-anchor="start" x="21.6" y="-261.3" font-family="Arial" font-size="18.00"> &#160;&#160;&#160;&#160;&#160;&#160;&#160;&#160;&#160;&#160;&#160;&#160;&#160;&#160;&#160;&#160;&#160;&#160;&#160;</text>
<text xml:space="preserve" text-anchor="start" x="126.6" y="-261.3" font-family="Arial" font-size="18.00">Validated by results; shows explicit cues can replace implicit reasoning.</text>
<text xml:space="preserve" text-anchor="start" x="686.85" y="-261.3" font-family="Arial" font-size="18.00"> &#160;&#160;&#160;&#160;&#160;&#160;&#160;&#160;&#160;&#160;&#160;&#160;&#160;&#160;&#160;</text>
</g>
<!-- C2_F2&#45;&gt;C2.3 -->
<g id="edge5" class="edge">
<title>C2_F2&#45;&gt;C2.3</title>
<path fill="none" stroke="#666666" stroke-width="2" d="M748.29,-456.81C678.06,-421.43 585.88,-374.97 513.45,-338.47"/>
<polygon fill="#666666" stroke="#666666" stroke-width="2" points="515.21,-335.44 504.71,-334.07 512.06,-341.69 515.21,-335.44"/>
<text xml:space="preserve" text-anchor="middle" x="566.11" y="-398.23" font-family="Arial" font-size="16.00">implies (Conf: 2)</text>
</g>
<!-- C2_I2 -->
<g id="node8" class="node">
<title>C2_I2</title>
<path fill="lightgreen" stroke="black" d="M756.82,-108C756.82,-108 35.62,-108 35.62,-108 29.62,-108 23.62,-102 23.62,-96 23.62,-96 23.62,-12 23.62,-12 23.62,-6 29.62,0 35.62,0 35.62,0 756.82,0 756.82,0 762.82,0 768.82,-6 768.82,-12 768.82,-12 768.82,-96 768.82,-96 768.82,-102 762.82,-108 756.82,-108"/>
<text xml:space="preserve" text-anchor="start" x="45.22" y="-63" font-family="Arial" font-size="18.00"> &#160;&#160;&#160;&#160;&#160;&#160;&#160;&#160;&#160;&#160;&#160;&#160;&#160;&#160;&#160;&#160;&#160;&#160;&#160;</text>
<text xml:space="preserve" text-anchor="start" x="150.22" y="-63" font-family="Arial" font-weight="bold" font-size="20.00">Deploy bottleneck&#45;style detector in online moderation pipelines</text>
<text xml:space="preserve" text-anchor="start" x="50.1" y="-44.9" font-family="Arial" font-size="18.00"> &#160;&#160;&#160;&#160;&#160;&#160;&#160;&#160;&#160;&#160;&#160;&#160;&#160;&#160;&#160;&#160;&#160;&#160;&#160;</text>
<text xml:space="preserve" text-anchor="start" x="155.1" y="-44.9" font-family="Arial" font-size="18.00">Integrate algorithm to flag deceptive text in real&#45;world platforms.</text>
<text xml:space="preserve" text-anchor="start" x="658.35" y="-44.9" font-family="Arial" font-size="18.00"> &#160;&#160;&#160;&#160;&#160;&#160;&#160;&#160;&#160;&#160;&#160;&#160;&#160;&#160;&#160;</text>
<text xml:space="preserve" text-anchor="start" x="358.35" y="-28.8" font-family="Arial" font-size="16.00" fill="darkred">Maturity: 1</text>
</g>
<!-- C2.3&#45;&gt;C2_I2 -->
<g id="edge6" class="edge">
<title>C2.3&#45;&gt;C2_I2</title>
<path fill="none" stroke="#666666" stroke-width="2" d="M396.22,-224.13C396.22,-193.16 396.22,-153.87 396.22,-120.96"/>
<polygon fill="#666666" stroke="#666666" stroke-width="2" points="399.73,-121.25 396.23,-111.25 392.73,-121.25 399.73,-121.25"/>
<text xml:space="preserve" text-anchor="middle" x="285.97" y="-169.72" font-family="Arial" font-size="16.00">suggests deployment (Conf: 1)</text>
</g>
<!-- C3_F3 -->
<g id="node10" class="node">
<title>C3_F3</title>
<path fill="lightblue" stroke="black" d="M2075.32,-565.2C2075.32,-565.2 1351.12,-565.2 1351.12,-565.2 1345.12,-565.2 1339.12,-559.2 1339.12,-553.2 1339.12,-553.2 1339.12,-469.2 1339.12,-469.2 1339.12,-463.2 1345.12,-457.2 1351.12,-457.2 1351.12,-457.2 2075.32,-457.2 2075.32,-457.2 2081.32,-457.2 2087.32,-463.2 2087.32,-469.2 2087.32,-469.2 2087.32,-553.2 2087.32,-553.2 2087.32,-559.2 2081.32,-565.2 2075.32,-565.2"/>
<text xml:space="preserve" text-anchor="start" x="1431.6" y="-512.2" font-family="Arial" font-size="18.00"> &#160;&#160;&#160;&#160;&#160;&#160;&#160;&#160;&#160;&#160;&#160;&#160;&#160;&#160;&#160;&#160;&#160;&#160;&#160;</text>
<text xml:space="preserve" text-anchor="start" x="1536.6" y="-512.2" font-family="Arial" font-weight="bold" font-size="20.00">Explanations preferred by humans (higher e&#45;ViL)</text>
<text xml:space="preserve" text-anchor="start" x="1360.72" y="-494.1" font-family="Arial" font-size="18.00"> &#160;&#160;&#160;&#160;&#160;&#160;&#160;&#160;&#160;&#160;&#160;&#160;&#160;&#160;&#160;&#160;&#160;&#160;&#160;</text>
<text xml:space="preserve" text-anchor="start" x="1465.72" y="-494.1" font-family="Arial" font-size="18.00">User studies show explanations more satisfactory than baselines.</text>
<text xml:space="preserve" text-anchor="start" x="1981.72" y="-494.1" font-family="Arial" font-size="18.00"> &#160;&#160;&#160;&#160;&#160;&#160;&#160;&#160;&#160;&#160;&#160;&#160;&#160;&#160;&#160;</text>
</g>
<!-- C3_BOT_ARCH_CUES&#45;&gt;C3_F3 -->
<g id="edge7" class="edge">
<title>C3_BOT_ARCH_CUES&#45;&gt;C3_F3</title>
<path fill="none" stroke="#666666" stroke-width="2" d="M2662.65,-681.15C2464.59,-645.9 2218.41,-602.1 2026.36,-567.92"/>
<polygon fill="#666666" stroke="#666666" stroke-width="2" points="2027.23,-564.52 2016.77,-566.22 2026,-571.41 2027.23,-564.52"/>
<text xml:space="preserve" text-anchor="middle" x="2271.62" y="-626.99" font-family="Arial" font-size="16.00">produces (Conf: 3)</text>
</g>
<!-- C4_F2F3 -->
<g id="node12" class="node">
<title>C4_F2F3</title>
<path fill="lightblue" stroke="black" d="M3440.95,-573.6C3440.95,-573.6 2579.5,-573.6 2579.5,-573.6 2573.5,-573.6 2567.5,-567.6 2567.5,-561.6 2567.5,-561.6 2567.5,-460.8 2567.5,-460.8 2567.5,-454.8 2573.5,-448.8 2579.5,-448.8 2579.5,-448.8 3440.95,-448.8 3440.95,-448.8 3446.95,-448.8 3452.95,-454.8 3452.95,-460.8 3452.95,-460.8 3452.95,-561.6 3452.95,-561.6 3452.95,-567.6 3446.95,-573.6 3440.95,-573.6"/>
<text xml:space="preserve" text-anchor="start" x="2943.85" y="-539.3" font-family="Arial" font-size="18.00"> &#160;&#160;&#160;&#160;&#160;&#160;&#160;&#160;&#160;&#160;&#160;&#160;&#160;&#160;&#160;&#160;&#160;&#160;&#160;</text>
<text xml:space="preserve" text-anchor="start" x="3048.85" y="-539.3" font-family="Arial" font-weight="bold" font-size="22.00" fill="darkblue">C4</text>
<text xml:space="preserve" text-anchor="start" x="2589.1" y="-521.1" font-family="Arial" font-size="18.00"> &#160;&#160;&#160;&#160;&#160;&#160;&#160;&#160;&#160;&#160;&#160;&#160;&#160;&#160;&#160;&#160;&#160;&#160;&#160;</text>
<text xml:space="preserve" text-anchor="start" x="2694.1" y="-521.1" font-family="Arial" font-style="italic" font-size="16.00">Complementary strengths of model and humans motivate interactive tools for joint deception detection.</text>
<text xml:space="preserve" text-anchor="start" x="2665.6" y="-483.2" font-family="Arial" font-size="18.00"> &#160;&#160;&#160;&#160;&#160;&#160;&#160;&#160;&#160;&#160;&#160;&#160;&#160;&#160;&#160;&#160;&#160;&#160;&#160;</text>
<text xml:space="preserve" text-anchor="start" x="2770.6" y="-483.2" font-family="Arial" font-weight="bold" font-size="20.00">Model correct where humans fail; complementary error profile</text>
<text xml:space="preserve" text-anchor="start" x="2642.35" y="-465.1" font-family="Arial" font-size="18.00"> &#160;&#160;&#160;&#160;&#160;&#160;&#160;&#160;&#160;&#160;&#160;&#160;&#160;&#160;&#160;&#160;&#160;&#160;&#160;</text>
<text xml:space="preserve" text-anchor="start" x="2747.35" y="-465.1" font-family="Arial" font-size="18.00">Analysis shows model excels in sessions with many deceived judges.</text>
<text xml:space="preserve" text-anchor="start" x="3294.1" y="-465.1" font-family="Arial" font-size="18.00"> &#160;&#160;&#160;&#160;&#160;&#160;&#160;&#160;&#160;&#160;&#160;&#160;&#160;&#160;&#160;</text>
</g>
<!-- C3_BOT_ARCH_CUES&#45;&gt;C4_F2F3 -->
<!-- C3_I3 -->
<g id="node11" class="node">
<title>C3_I3</title>
<path fill="lightgreen" stroke="black" d="M1720.45,-332.4C1720.45,-332.4 862,-332.4 862,-332.4 856,-332.4 850,-326.4 850,-320.4 850,-320.4 850,-236.4 850,-236.4 850,-230.4 856,-224.4 862,-224.4 862,-224.4 1720.45,-224.4 1720.45,-224.4 1726.45,-224.4 1732.45,-230.4 1732.45,-236.4 1732.45,-236.4 1732.45,-320.4 1732.45,-320.4 1732.45,-326.4 1726.45,-332.4 1720.45,-332.4"/>
<text xml:space="preserve" text-anchor="start" x="871.6" y="-287.4" font-family="Arial" font-size="18.00"> &#160;&#160;&#160;&#160;&#160;&#160;&#160;&#160;&#160;&#160;&#160;&#160;&#160;&#160;&#160;&#160;&#160;&#160;&#160;</text>
<text xml:space="preserve" text-anchor="start" x="976.6" y="-287.4" font-family="Arial" font-weight="bold" font-size="20.00">Require LLMs to output linguistic&#45;cue explanations in safety&#45;critical decisions</text>
<text xml:space="preserve" text-anchor="start" x="993.85" y="-269.3" font-family="Arial" font-size="18.00"> &#160;&#160;&#160;&#160;&#160;&#160;&#160;&#160;&#160;&#160;&#160;&#160;&#160;&#160;&#160;&#160;&#160;&#160;&#160;</text>
<text xml:space="preserve" text-anchor="start" x="1098.85" y="-269.3" font-family="Arial" font-size="18.00">Policy/technical mandate for transparent reasoning.</text>
<text xml:space="preserve" text-anchor="start" x="1504.6" y="-269.3" font-family="Arial" font-size="18.00"> &#160;&#160;&#160;&#160;&#160;&#160;&#160;&#160;&#160;&#160;&#160;&#160;&#160;&#160;&#160;</text>
<text xml:space="preserve" text-anchor="start" x="1253.35" y="-253.2" font-family="Arial" font-size="16.00" fill="darkred">Maturity: 0</text>
</g>
<!-- C3_F3&#45;&gt;C3_I3 -->
<g id="edge8" class="edge">
<title>C3_F3&#45;&gt;C3_I3</title>
<path fill="none" stroke="#666666" stroke-width="2" d="M1615.61,-456.81C1551.18,-421.57 1466.67,-375.35 1400.06,-338.93"/>
<polygon fill="#666666" stroke="#666666" stroke-width="2" points="1401.8,-335.89 1391.35,-334.16 1398.44,-342.03 1401.8,-335.89"/>
<text xml:space="preserve" text-anchor="middle" x="1440.18" y="-398.26" font-family="Arial" font-size="16.00">enables (Conf: 1)</text>
</g>
<!-- C4_I4 -->
<g id="node13" class="node">
<title>C4_I4</title>
<path fill="lightgreen" stroke="black" d="M2546.45,-332.4C2546.45,-332.4 1802,-332.4 1802,-332.4 1796,-332.4 1790,-326.4 1790,-320.4 1790,-320.4 1790,-236.4 1790,-236.4 1790,-230.4 1796,-224.4 1802,-224.4 1802,-224.4 2546.45,-224.4 2546.45,-224.4 2552.45,-224.4 2558.45,-230.4 2558.45,-236.4 2558.45,-236.4 2558.45,-320.4 2558.45,-320.4 2558.45,-326.4 2552.45,-332.4 2546.45,-332.4"/>
<text xml:space="preserve" text-anchor="start" x="1811.6" y="-287.4" font-family="Arial" font-size="18.00"> &#160;&#160;&#160;&#160;&#160;&#160;&#160;&#160;&#160;&#160;&#160;&#160;&#160;&#160;&#160;&#160;&#160;&#160;&#160;</text>
<text xml:space="preserve" text-anchor="start" x="1916.6" y="-287.4" font-family="Arial" font-weight="bold" font-size="20.00">Interactive UI surfacing model&#45;flagged cues to human moderators</text>
<text xml:space="preserve" text-anchor="start" x="1812.72" y="-269.3" font-family="Arial" font-size="18.00"> &#160;&#160;&#160;&#160;&#160;&#160;&#160;&#160;&#160;&#160;&#160;&#160;&#160;&#160;&#160;&#160;&#160;&#160;&#160;</text>
<text xml:space="preserve" text-anchor="start" x="1917.72" y="-269.3" font-family="Arial" font-size="18.00">Tool displays ambiguity, half&#45;truth indicators to aid human judgment.</text>
<text xml:space="preserve" text-anchor="start" x="2451.72" y="-269.3" font-family="Arial" font-size="18.00"> &#160;&#160;&#160;&#160;&#160;&#160;&#160;&#160;&#160;&#160;&#160;&#160;&#160;&#160;&#160;</text>
<text xml:space="preserve" text-anchor="start" x="2136.35" y="-253.2" font-family="Arial" font-size="16.00" fill="darkred">Maturity: 0</text>
</g>
<!-- C4_F2F3&#45;&gt;C4_I4 -->
<g id="edge9" class="edge">
<title>C4_F2F3&#45;&gt;C4_I4</title>
<path fill="none" stroke="#666666" stroke-width="2" d="M2786.19,-448.35C2659.93,-413.49 2503.33,-370.26 2380.15,-336.25"/>
<polygon fill="#666666" stroke="#666666" stroke-width="2" points="2381.45,-332.98 2370.88,-333.69 2379.59,-339.73 2381.45,-332.98"/>
<text xml:space="preserve" text-anchor="middle" x="2508.82" y="-394.17" font-family="Arial" font-size="16.00">motivates (Conf: 1)</text>
</g>
<!-- C5.1 -->
<g id="node14" class="node">
<title>C5.1</title>
<path fill="lightblue" stroke="black" d="M3392.2,-340.8C3392.2,-340.8 2628.25,-340.8 2628.25,-340.8 2622.25,-340.8 2616.25,-334.8 2616.25,-328.8 2616.25,-328.8 2616.25,-228 2616.25,-228 2616.25,-222 2622.25,-216 2628.25,-216 2628.25,-216 3392.2,-216 3392.2,-216 3398.2,-216 3404.2,-222 3404.2,-228 3404.2,-228 3404.2,-328.8 3404.2,-328.8 3404.2,-334.8 3398.2,-340.8 3392.2,-340.8"/>
<text xml:space="preserve" text-anchor="start" x="2943.85" y="-306.5" font-family="Arial" font-size="18.00"> &#160;&#160;&#160;&#160;&#160;&#160;&#160;&#160;&#160;&#160;&#160;&#160;&#160;&#160;&#160;&#160;&#160;&#160;&#160;</text>
<text xml:space="preserve" text-anchor="start" x="3048.85" y="-306.5" font-family="Arial" font-weight="bold" font-size="22.00" fill="darkblue">C5</text>
<text xml:space="preserve" text-anchor="start" x="2644.97" y="-288.3" font-family="Arial" font-size="18.00"> &#160;&#160;&#160;&#160;&#160;&#160;&#160;&#160;&#160;&#160;&#160;&#160;&#160;&#160;&#160;&#160;&#160;&#160;&#160;</text>
<text xml:space="preserve" text-anchor="start" x="2749.97" y="-288.3" font-family="Arial" font-style="italic" font-size="16.00">Half&#45;truth cue is most predictive, suggesting targeted training objectives for robustness.</text>
<text xml:space="preserve" text-anchor="start" x="2772.85" y="-250.4" font-family="Arial" font-size="18.00"> &#160;&#160;&#160;&#160;&#160;&#160;&#160;&#160;&#160;&#160;&#160;&#160;&#160;&#160;&#160;&#160;&#160;&#160;&#160;</text>
<text xml:space="preserve" text-anchor="start" x="2877.85" y="-250.4" font-family="Arial" font-weight="bold" font-size="20.00">Half&#45;truth detection cue most impactful</text>
<text xml:space="preserve" text-anchor="start" x="2637.85" y="-232.3" font-family="Arial" font-size="18.00"> &#160;&#160;&#160;&#160;&#160;&#160;&#160;&#160;&#160;&#160;&#160;&#160;&#160;&#160;&#160;&#160;&#160;&#160;&#160;</text>
<text xml:space="preserve" text-anchor="start" x="2742.85" y="-232.3" font-family="Arial" font-size="18.00">Ablation shows largest accuracy drop when half&#45;truth control removed.</text>
<text xml:space="preserve" text-anchor="start" x="3298.6" y="-232.3" font-family="Arial" font-size="18.00"> &#160;&#160;&#160;&#160;&#160;&#160;&#160;&#160;&#160;&#160;&#160;&#160;&#160;&#160;&#160;</text>
</g>
<!-- C4_F2F3&#45;&gt;C5.1 -->
<!-- C5_I5 -->
<g id="node15" class="node">
<title>C5_I5</title>
<path fill="lightgreen" stroke="black" d="M3426.32,-108C3426.32,-108 2594.12,-108 2594.12,-108 2588.12,-108 2582.12,-102 2582.12,-96 2582.12,-96 2582.12,-12 2582.12,-12 2582.12,-6 2588.12,0 2594.12,0 2594.12,0 3426.32,0 3426.32,0 3432.32,0 3438.32,-6 3438.32,-12 3438.32,-12 3438.32,-96 3438.32,-96 3438.32,-102 3432.32,-108 3426.32,-108"/>
<text xml:space="preserve" text-anchor="start" x="2713.6" y="-63" font-family="Arial" font-size="18.00"> &#160;&#160;&#160;&#160;&#160;&#160;&#160;&#160;&#160;&#160;&#160;&#160;&#160;&#160;&#160;&#160;&#160;&#160;&#160;</text>
<text xml:space="preserve" text-anchor="start" x="2818.6" y="-63" font-family="Arial" font-weight="bold" font-size="20.00">Add half&#45;truth detection loss during LLM fine&#45;tuning</text>
<text xml:space="preserve" text-anchor="start" x="2603.72" y="-44.9" font-family="Arial" font-size="18.00"> &#160;&#160;&#160;&#160;&#160;&#160;&#160;&#160;&#160;&#160;&#160;&#160;&#160;&#160;&#160;&#160;&#160;&#160;&#160;</text>
<text xml:space="preserve" text-anchor="start" x="2708.72" y="-44.9" font-family="Arial" font-size="18.00">Explicitly supervise half&#45;truth recognition to improve misinformation robustness.</text>
<text xml:space="preserve" text-anchor="start" x="3332.72" y="-44.9" font-family="Arial" font-size="18.00"> &#160;&#160;&#160;&#160;&#160;&#160;&#160;&#160;&#160;&#160;&#160;&#160;&#160;&#160;&#160;</text>
<text xml:space="preserve" text-anchor="start" x="2972.35" y="-28.8" font-family="Arial" font-size="16.00" fill="darkred">Maturity: 0</text>
</g>
<!-- C5.1&#45;&gt;C5_I5 -->
<g id="edge10" class="edge">
<title>C5.1&#45;&gt;C5_I5</title>
<path fill="none" stroke="#666666" stroke-width="2" d="M3010.22,-215.74C3010.22,-186.41 3010.22,-151.28 3010.22,-121.36"/>
<polygon fill="#666666" stroke="#666666" stroke-width="2" points="3013.73,-121.48 3010.23,-111.48 3006.73,-121.48 3013.73,-121.48"/>
<text xml:space="preserve" text-anchor="middle" x="2944.22" y="-165.49" font-family="Arial" font-size="16.00">suggests (Conf: 1)</text>
</g>
</g>
</svg>
